<?xml version="1.0" encoding="utf-8"?>
<!-- Generator: Adobe Illustrator 27.5.0, SVG Export Plug-In . SVG Version: 6.00 Build 0)  -->
<svg version="1.1" id="Layer_1" xmlns="http://www.w3.org/2000/svg" xmlns:xlink="http://www.w3.org/1999/xlink" x="0px" y="0px"
	 viewBox="0 0 230.287 329.013" style="enable-background:new 0 0 230.287 329.013;" xml:space="preserve">
<g>
	<g>
		<path style="fill:#BD8840;" d="M210.978,180.057c0.344,1.64,0.599,3.295,0.846,4.952c1.244,1.482,2.338,3.087,3.232,4.812
			c1.294,2.497,2.176,5.188,2.742,7.938c0.301,1.465,0.529,2.951,0.673,4.44c0.121,1.254,0.225,2.501,0.44,3.744
			c0.737,4.274,2.362,8.807,5.648,11.739c-0.197-0.749-0.393-1.497-0.591-2.247c-0.593-2.242-1.112-4.55-1.283-6.867
			c-0.169-2.294-0.035-4.612-0.083-6.912c-0.044-2.119-0.154-4.237-0.384-6.344c-0.487-4.464-1.644-8.746-3.344-12.898
			c-1.659-4.05-3.47-8.17-6.383-11.496c-1.557-1.778-3.405-3.342-5.353-4.676c-0.791-0.541-1.587-1.095-2.405-1.601
			c0.533,0.761,1.079,1.514,1.562,2.302c1.182,1.926,2.102,4.031,2.803,6.176C209.839,175.385,210.489,177.722,210.978,180.057z"/>
		<path style="fill:#484236;" d="M223.969,215.435c-0.593-2.242-1.112-4.55-1.283-6.867c-0.169-2.294-0.035-4.612-0.083-6.912
			c-0.044-2.119-0.154-4.237-0.384-6.344c-0.095-0.87-0.223-1.73-0.367-2.587c-0.93,4.404-2.105,8.757-2.946,13.181
			c0.002,0.013,0.004,0.025,0.006,0.038c0.737,4.274,2.362,8.807,5.648,11.739C224.363,216.933,224.167,216.185,223.969,215.435z"/>
		<g>
			<path style="fill:#BD8840;" d="M200.402,253.774c0.11-2.573-0.985-5.09-2.293-8.12c-1.2-2.781-2.525-5.506-3.611-8.335
				c-1.131-2.946-1.934-5.985-2.445-9.098c-1.002-6.103-0.976-12.322-1.045-18.489c-0.061-5.484-0.143-11.026-1.036-16.451
				c-0.425-1.314-0.893-2.614-1.407-3.896c-1.206-3.625-2.686-7.174-5.159-10.131c-3.493-4.176-8.647-7.671-14.312-6.728
				c-9.194,1.531-16.342,11.033-18.864,19.421c-2.826,9.4-1.185,19.812,2.697,28.662c5.039,11.489,14.853,19.508,20.795,30.324
				c4.879,8.882,3.411,19.606,1.661,29.128c-1.049,5.709-1.941,11.445-2.818,17.182c-0.382,2.497-3.455,12.079-1.447,14.103
				c0.171,0.172,0.368,0.332,0.604,0.471c4.514,2.67,13.4,0.454,12.829-5.626c-0.05-0.535-0.055-1.068-0.03-1.598
				c-1.158-6.386-1.084-12.225,0.921-18.466c3.077-9.58,7.443-19.103,13.156-27.404
				C199.811,256.963,200.335,255.358,200.402,253.774z"/>
			<path style="fill:#FFF1E2;" d="M198.11,245.654c-1.2-2.78-2.525-5.506-3.611-8.335c-1.131-2.946-1.934-5.985-2.445-9.098
				c-1.002-6.103-0.976-12.322-1.045-18.489c-0.061-5.484-0.143-11.026-1.036-16.451c-0.425-1.314-0.893-2.614-1.407-3.896
				c-1.206-3.625-2.686-7.174-5.159-10.131c-0.878-1.049-1.86-2.055-2.93-2.959c-3.274,9.98-5.422,20.383-5.219,30.924
				c0.109,5.699,0.907,11.37,2.371,16.879c1.526,5.74,3.94,11.084,6.249,16.535c1.911,4.51,3.649,9.162,4.004,14.09
				c0.388,5.378-1.139,10.44-2.842,15.474c-1.758,5.195-3.702,10.365-4.723,15.772c-0.511,2.705-0.774,5.467-0.606,8.219
				c0.087,1.428,0.294,2.847,0.632,4.237c0.31,1.275,0.886,2.467,1.376,3.68c0.882,2.181,1.258,4.277,0.693,6.593
				c-0.271,1.11-0.749,2.146-1.318,3.133c2.177-1.101,3.704-3.008,3.457-5.641c-0.05-0.535-0.055-1.068-0.03-1.598
				c-1.158-6.386-1.084-12.225,0.921-18.466c3.077-9.58,7.443-19.103,13.156-27.404c1.211-1.759,1.735-3.364,1.802-4.948
				C200.512,251.201,199.418,248.685,198.11,245.654z"/>
			<path style="opacity:0.55;fill:#BD8840;" d="M173.766,242.259c1.991-0.303,4.011-0.557,6.029-0.44
				c1.945,0.113,3.822,0.607,5.52,1.574c2.902,1.654,5.004,4.343,6.535,7.262c1.643,3.133,2.721,6.531,3.746,9.905
				c0.193,0.634,0.382,1.271,0.572,1.909c0.783-1.272,1.592-2.524,2.434-3.747c1.211-1.759,1.735-3.364,1.802-4.948
				c0.11-2.573-0.985-5.09-2.292-8.12c-1.2-2.781-2.525-5.506-3.611-8.335c-1.131-2.946-1.934-5.985-2.445-9.098
				c-1.002-6.103-0.976-12.322-1.045-18.488c-0.061-5.485-0.143-11.027-1.036-16.451c-0.425-1.314-0.893-2.614-1.407-3.896
				c-1.205-3.625-2.686-7.174-5.159-10.131c-3.493-4.176-8.647-7.671-14.312-6.728c-9.194,1.531-16.342,11.033-18.864,19.421
				c-2.826,9.4-1.185,19.812,2.697,28.662c3.743,8.534,10.12,15.156,15.588,22.429C170.281,242.843,172.04,242.521,173.766,242.259z
				"/>
			<path style="fill:#3B2920;" d="M171.128,304.873c-0.139,0.05-0.276,0.107-0.413,0.169c-0.411,0.654-0.812,1.314-1.189,1.988
				c-1.386,2.481-2.517,5.084-3.498,7.745c0.085,0.122,0.179,0.237,0.29,0.337c2.243,2.036,17.408,0.859,17.341-5.423
				C183.66,309.689,175.141,303.437,171.128,304.873z"/>
		</g>
		<g>
			<g>
				<path style="fill:#BD8840;" d="M99.112,308.791c-0.014-0.886-0.042-1.772-0.029-2.658c0.012-0.87,0.005-1.779,0.284-2.613
					c0.385-1.151,1.315-1.858,2.026-2.77c0.237-0.879,0.547-1.741,0.917-2.576c0.025-0.057,0.053-0.114,0.08-0.17
					c-0.001-0.082-0.002-0.163-0.009-0.244c-0.071-0.792-0.512-1.45-0.979-2.066c-0.528-0.696-1.117-1.373-1.518-2.155
					c-0.451-0.879-0.694-1.885-0.871-2.851c-0.384-2.091-0.397-4.236-0.598-6.349c-0.365-3.843-0.925-7.673-1.003-11.538
					c-0.039-1.909,0.036-3.829,0.34-5.716c0.298-1.849,0.908-3.52,1.602-5.249c0.643-1.602,1.173-3.28,1.168-5.023
					c-0.006-1.828-0.54-3.585-1.085-5.313c-1.342-4.253-0.953-8.612-0.474-12.97c0.444-4.033,0.857-8.086,1.03-12.141
					c0.246-5.76-0.124-11.673-2.073-17.059c-2.102-5.807-10.511-8.472-15.922-9.004c-2.663-0.262-5.301-0.163-6.956,2.151
					c-3.504,4.9-3.46,10.594-1.762,16.145c0.649,2.122,1.452,4.192,2.275,6.251c0.746,1.867,1.49,3.726,2.365,5.538
					c1.913,3.966,4.125,7.784,5.909,11.813c0.842,1.902,1.596,3.856,2.1,5.878c0.234,0.939,0.467,1.911,0.459,2.883
					c-0.008,1.014-0.192,2.012-0.371,3.007c-0.195,1.081-0.385,2.18-0.262,3.281c0.123,1.102,0.586,2.145,1.175,3.075
					c1.005,1.586,2.239,2.955,2.694,4.827c1.052,4.322,1.183,8.861,1.191,13.289c0.004,2.298-0.048,4.596-0.099,6.894
					c-0.047,2.127-0.038,4.259-0.158,6.383c-0.226,4.014-0.94,7.98-2.255,11.783c-0.394,1.139-0.844,2.254-1.332,3.352
					c-0.036,0.173-0.077,0.346-0.106,0.521c-0.266,1.606-0.135,3.276,1.411,4.145c3.081,1.733,8.097,1.2,10.826-1.188
					C99.119,309.833,99.121,309.312,99.112,308.791z"/>
				<path style="fill:#FFF1E2;" d="M102.382,297.761c-0.071-0.792-0.512-1.45-0.979-2.066c-0.528-0.696-1.117-1.373-1.518-2.155
					c-0.451-0.879-0.694-1.885-0.871-2.851c-0.384-2.091-0.397-4.236-0.598-6.349c-0.365-3.843-0.925-7.673-1.003-11.538
					c-0.039-1.909,0.036-3.829,0.34-5.716c0.298-1.849,0.908-3.52,1.602-5.249c0.643-1.602,1.173-3.28,1.168-5.023
					c-0.006-1.828-0.54-3.585-1.085-5.313c-1.342-4.253-0.953-8.612-0.474-12.97c0.444-4.033,0.857-8.086,1.03-12.141
					c0.246-5.76-0.124-11.673-2.073-17.059c-1.214-3.353-4.531-5.657-8.158-7.109c2.271,4.76,3.017,10.194,3.235,15.501
					c0.156,3.798,0.077,7.599,0.164,11.398c0.099,4.333,0.543,8.618,1.475,12.855c0.518,2.354,1.146,4.682,1.766,7.011
					c0.599,2.25,0.977,4.369,0.683,6.703c-0.571,4.533-2.71,8.708-2.536,13.354c0.099,2.624,0.647,5.204,1.09,7.784
					c0.4,2.328,0.516,4.633,0.512,6.992c-0.004,2.408-0.076,4.834,0.222,7.229c0.142,1.146,0.362,2.307,0.822,3.372
					c0.337,0.781,0.799,1.496,1.191,2.248c0.826,1.583,0.956,3.301,0.273,4.971c-0.786,1.922-2.319,3.447-3.017,5.406
					c-0.576,1.62-0.607,3.457-0.349,5.187c1.442-0.352,2.785-0.986,3.807-1.881c0.019-0.52,0.021-1.041,0.012-1.562
					c-0.014-0.886-0.042-1.772-0.029-2.658c0.012-0.87,0.005-1.779,0.284-2.613c0.385-1.151,1.315-1.858,2.026-2.77
					c0.237-0.879,0.547-1.741,0.917-2.576c0.025-0.057,0.053-0.114,0.08-0.17C102.39,297.923,102.389,297.841,102.382,297.761z"/>
				<path style="fill:#3B2920;" d="M87.477,306.251c-0.113,0.043-0.225,0.093-0.336,0.146c-0.325,0.543-0.642,1.092-0.939,1.651
					c-1.093,2.059-1.973,4.214-2.73,6.414c0.072,0.098,0.151,0.191,0.244,0.271c1.875,1.629,14.291,0.392,14.123-4.758
					C97.839,309.976,90.742,305.001,87.477,306.251z"/>
			</g>
			<g>
				<path style="opacity:0.55;fill:#BD8840;" d="M74.025,209.115c3.395,4.702,7.384,8.986,11.839,12.696
					c2.638,2.196,5.45,4.1,8.377,5.887c1.46,0.891,2.933,1.767,4.382,2.679c0.084-1.195,0.207-2.391,0.339-3.588
					c0.444-4.033,0.857-8.086,1.03-12.14c0.246-5.76-0.123-11.674-2.073-17.059c-2.102-5.807-10.511-8.472-15.922-9.004
					c-2.663-0.262-5.301-0.163-6.956,2.151c-3.504,4.9-3.46,10.594-1.762,16.145C73.509,207.631,73.762,208.374,74.025,209.115z"/>
			</g>
		</g>
		<path style="fill:#BD8840;" d="M93.565,223.689c8.173,1.33,16.54,1.341,24.815,0.857c11.474-0.67,22.899-2.189,34.405-2.273
			c2.862-0.021,5.724,0.047,8.58,0.236c2.468,0.164,4.922,0.47,7.392,0.615c4.263,0.25,8.551,0.212,12.798-0.26
			c2.429-0.27,4.83-0.695,7.189-1.275c7.905-1.943,18.152-9.967,23.208-16.067c12.882-15.541,1.375-41.797-17.022-47.259
			c-6.28-1.865-12.274-0.274-18.505,0.762c-5.712,0.95-11.411,0.557-17.184,0.425c-14.659-0.335-29.35,0.501-43.873,2.522
			c-10.921,1.52-22.184,1.035-30.214-7.612c-4.485-4.83-7.573-10.529-9.751-16.609c-0.284-0.513-0.56-1.028-0.822-1.545
			c-1.652-3.267-2.886-6.734-3.846-10.262c-1.01-3.71-1.722-7.497-2.286-11.298c-0.57-3.841-0.989-7.703-1.375-11.567
			c-0.381-3.804-0.727-7.612-1.17-11.409c-0.107-0.92-0.221-1.84-0.343-2.758c-1.533,0.688-3.008,1.56-4.443,2.33
			c-3.061,1.642-6.134,3.277-9.031,5.199c-1.988,1.318-3.985,2.782-5.648,4.535c-2.25,1.357-4.51,2.696-6.795,3.993
			c-1.406,0.798-2.824,1.575-4.25,2.335c2.559,4.848,4.695,9.921,6.5,15.098c12,34.418,11.1,81.186,48.412,99.758
			C91.372,222.693,92.463,223.198,93.565,223.689z M50.186,98.699c-0.241,0.147-0.482,0.293-0.722,0.44
			c0.439-0.332,0.881-0.657,1.322-0.966c2.694-1.888,5.583-3.48,8.492-5.011C56.236,94.988,53.213,96.847,50.186,98.699z"/>
		<path style="opacity:0.47;fill:#B5793A;" d="M123.535,222.721c-2.552-2.06-4.962-4.288-7.495-6.371
			c-2.336-1.921-4.818-3.775-7.622-4.956c-2.697-1.136-5.629-1.492-8.497-0.842c-1.716,0.389-3.346,1.082-4.874,1.947
			c-0.908,0.513-1.801,1.077-2.657,1.672c-0.64,0.444-1.244,0.986-1.956,1.314c-1.594,0.734-3.616,0.068-5.075-0.694
			c-1.955-1.02-3.621-2.552-5.192-4.075c-3.355-3.252-6.691-6.514-9.724-10.074c-2.975-3.492-5.705-7.187-8.224-11.019
			c-1.306-1.987-2.554-4.01-3.762-6.058c5.972,16.119,15.025,30.224,31.847,38.597c1.069,0.532,2.16,1.037,3.262,1.529
			c8.173,1.33,16.54,1.341,24.815,0.857c2.291-0.134,4.58-0.306,6.869-0.489C124.669,223.621,124.097,223.176,123.535,222.721z"/>
		<path style="opacity:0.47;fill:#B5793A;" d="M43.852,128.494c6.869,3.184,15.215,1.372,20.754-3.749
			c0.139-0.129,0.388-0.12,0.484,0.062c0.565,1.075,1.086,2.171,1.567,3.287c3.889,9.023,5.363,19.179,11.22,27.285
			c4.709,6.516,11.102,11.566,19.095,13.205c9.471,1.941,19.271-0.539,28.33-3.24c4.991-1.488,9.958-3.087,15.055-4.182
			c3.383-0.727,6.808-1.303,10.246-1.758c-11.785,0.101-23.566,0.946-35.238,2.57c-10.921,1.52-22.184,1.035-30.214-7.612
			c-4.485-4.83-7.573-10.529-9.751-16.609c-0.284-0.513-0.56-1.028-0.822-1.545c-1.652-3.267-2.886-6.734-3.846-10.262
			c-1.01-3.71-1.722-7.497-2.286-11.298c-0.57-3.841-0.989-7.703-1.375-11.567c-0.381-3.804-0.727-7.612-1.17-11.409
			c-0.107-0.92-0.221-1.84-0.343-2.758c-1.533,0.688-3.008,1.56-4.443,2.33c-3.061,1.642-6.134,3.277-9.031,5.199
			c-1.988,1.318-3.985,2.782-5.648,4.535c-2.25,1.357-4.51,2.696-6.795,3.993c-1.406,0.798-2.824,1.575-4.25,2.335
			c2.559,4.848,4.695,9.921,6.5,15.098C42.585,124.394,43.234,126.428,43.852,128.494z M50.786,98.173
			c2.694-1.888,5.583-3.48,8.492-5.011c-3.042,1.826-6.065,3.686-9.092,5.537c-0.241,0.147-0.482,0.293-0.722,0.44
			C49.903,98.807,50.345,98.482,50.786,98.173z"/>
		<path style="fill:#FFF1E2;" d="M209.202,168.006c0.016,0.98-0.123,1.945-0.57,2.85c-0.551,1.115-1.568,1.932-2.575,2.623
			c-1.066,0.731-2.308,1.147-3.535,1.519c-1.26,0.382-2.548,0.728-3.707,1.372c-0.996,0.554-1.799,1.322-2.448,2.253
			c-1.007,1.446-1.618,3.118-2.077,4.807c-0.913,3.361-1.182,6.954-2.642,10.148c-0.645,1.411-1.581,2.683-2.874,3.562
			c-1.57,1.067-3.502,1.435-5.372,1.465c-2.366,0.039-4.805-0.392-7.147,0.067c-1.384,0.271-2.699,0.819-3.958,1.441
			c-1.568,0.776-3.106,1.618-4.655,2.432c-6.011,3.16-12.063,6.383-18.46,8.706c-6.298,2.287-13.055,4.329-19.831,3.516
			c-1.723-0.207-3.383-0.666-5.065-1.074c-1.724-0.419-3.454-0.816-5.196-1.154c-0.866-0.168-1.724-0.259-2.595-0.375
			c-0.72-0.096-1.427-0.265-2.142-0.388c-0.706-0.122-1.49-0.237-2.192-0.044c-0.407,0.111-0.8,0.286-1.164,0.498
			c-3.178,1.853-3.614,6.381-3.638,9.67c-0.007,0.97,0.028,1.943,0.096,2.917c3.643,0.048,7.292-0.059,10.923-0.271
			c11.474-0.67,22.899-2.189,34.405-2.273c2.862-0.021,5.724,0.047,8.58,0.236c2.468,0.164,4.922,0.47,7.392,0.615
			c4.263,0.25,8.551,0.212,12.798-0.26c2.429-0.27,4.83-0.695,7.189-1.275c7.905-1.943,18.152-9.967,23.208-16.067
			C220.95,194.665,218.044,178.579,209.202,168.006z"/>
		<path style="opacity:0.52;fill:#A65934;" d="M50.786,98.173c2.694-1.888,5.583-3.48,8.492-5.011
			c-3.042,1.826-6.065,3.686-9.092,5.537c-0.241,0.147-0.482,0.293-0.722,0.44C49.903,98.807,50.345,98.482,50.786,98.173z"/>
		<g>
			<path style="fill:#BD8840;" d="M120.667,317.464c-0.015-0.886-0.042-1.772-0.029-2.658c0.012-0.87,0.005-1.779,0.284-2.613
				c0.385-1.151,1.315-1.858,2.026-2.769c0.237-0.879,0.547-1.741,0.917-2.576c0.025-0.057,0.053-0.114,0.081-0.17
				c-0.001-0.082-0.002-0.163-0.009-0.244c-0.071-0.792-0.512-1.45-0.979-2.066c-0.528-0.696-1.117-1.373-1.518-2.155
				c-0.451-0.879-0.694-1.885-0.872-2.851c-0.384-2.091-0.397-4.236-0.598-6.349c-0.365-3.843-0.925-7.673-1.003-11.538
				c-0.038-1.909,0.036-3.829,0.34-5.716c0.298-1.849,0.908-3.52,1.602-5.249c0.643-1.602,1.174-3.28,1.168-5.023
				c-0.006-1.828-0.54-3.585-1.085-5.313c-1.342-4.253-0.953-8.612-0.474-12.97c0.444-4.033,0.857-8.086,1.03-12.141
				c0.246-5.76-0.123-11.673-2.073-17.059c-2.102-5.807-10.511-8.472-15.922-9.004c-2.663-0.262-5.301-0.163-6.956,2.152
				c-3.505,4.9-3.46,10.594-1.762,16.145c0.649,2.122,1.452,4.192,2.275,6.251c0.746,1.867,1.49,3.726,2.365,5.538
				c1.913,3.966,4.125,7.784,5.909,11.813c0.842,1.902,1.596,3.856,2.1,5.877c0.234,0.939,0.467,1.911,0.459,2.883
				c-0.007,1.014-0.192,2.012-0.371,3.007c-0.195,1.081-0.385,2.18-0.262,3.28c0.123,1.102,0.586,2.145,1.175,3.075
				c1.004,1.586,2.239,2.955,2.694,4.827c1.051,4.322,1.183,8.862,1.191,13.289c0.004,2.298-0.048,4.596-0.099,6.894
				c-0.047,2.127-0.038,4.259-0.158,6.383c-0.226,4.014-0.94,7.98-2.255,11.783c-0.394,1.139-0.844,2.254-1.332,3.352
				c-0.036,0.173-0.077,0.346-0.106,0.521c-0.267,1.606-0.135,3.276,1.411,4.145c3.081,1.733,8.097,1.2,10.826-1.188
				C120.673,318.505,120.675,317.984,120.667,317.464z"/>
			<path style="fill:#FFF1E2;" d="M123.937,306.433c-0.071-0.792-0.512-1.45-0.979-2.066c-0.528-0.696-1.117-1.373-1.518-2.155
				c-0.451-0.879-0.694-1.885-0.872-2.851c-0.384-2.091-0.397-4.236-0.598-6.349c-0.365-3.843-0.925-7.673-1.003-11.538
				c-0.038-1.909,0.036-3.829,0.34-5.716c0.298-1.849,0.908-3.52,1.602-5.249c0.643-1.602,1.174-3.28,1.168-5.023
				c-0.006-1.828-0.54-3.585-1.085-5.313c-1.342-4.253-0.953-8.612-0.474-12.97c0.444-4.033,0.857-8.086,1.03-12.141
				c0.246-5.76-0.123-11.673-2.073-17.059c-0.709-1.959-2.138-3.56-3.926-4.842c0.86,4.265-0.297,9.185-0.811,13.279
				c-0.196,1.56-0.348,3.137-0.282,4.711c0.107,2.536,0.522,5.089,0.881,7.599c0.725,5.078,1.607,10.138,2.089,15.248
				c0.237,2.511,0.438,5.067,0.339,7.59c-0.082,2.076-0.431,4.122-0.814,6.16c-0.416,2.216-0.821,4.445-0.998,6.696
				c-0.181,2.289-0.018,4.594,0.273,6.867c0.602,4.713,1.786,9.337,2.252,14.069c0.118,1.2,0.207,2.385,0.474,3.566
				c0.236,1.045,0.557,2.067,0.867,3.091c0.596,1.964,1.169,4.069,0.995,6.141c-0.191,2.278-1.163,4.38-1.889,6.519
				c-0.653,1.923-1.148,3.927-1.233,5.963c1.117-0.371,2.145-0.917,2.964-1.634c0.019-0.52,0.021-1.041,0.012-1.561
				c-0.015-0.886-0.042-1.772-0.029-2.658c0.012-0.87,0.005-1.779,0.284-2.613c0.385-1.151,1.315-1.858,2.026-2.769
				c0.237-0.879,0.547-1.742,0.917-2.576c0.025-0.057,0.053-0.114,0.081-0.17C123.945,306.595,123.944,306.513,123.937,306.433z"/>
			<path style="opacity:0.55;fill:#BD8840;" d="M123.937,306.433c-0.071-0.792-0.512-1.45-0.979-2.066
				c-0.528-0.696-1.117-1.373-1.518-2.155c-0.451-0.879-0.694-1.885-0.872-2.851c-0.384-2.091-0.397-4.236-0.598-6.349
				c-0.365-3.843-0.925-7.673-1.003-11.538c-0.038-1.909,0.036-3.829,0.34-5.716c0.298-1.849,0.908-3.52,1.602-5.249
				c0.643-1.602,1.174-3.28,1.168-5.023c-0.006-1.828-0.54-3.585-1.085-5.313c-1.342-4.253-0.953-8.612-0.474-12.97
				c0.444-4.033,0.857-8.086,1.03-12.141c0.246-5.76-0.123-11.673-2.073-17.059c-2.102-5.807-10.511-8.472-15.922-9.004
				c-1.246-0.123-2.485-0.162-3.622,0.063c3.612-0.176,7.3,0.732,10.437,2.504c1.817,1.026,3.523,2.389,4.82,4.032
				c1.264,1.601,2.025,3.495,2.413,5.488c0.414,2.123,0.459,4.291,0.564,6.444c0.134,2.749,0.235,5.492,0.251,8.244
				c0.031,5.581-0.12,11.167,0.157,16.744c0.069,1.387,0.165,2.774,0.297,4.157c0.133,1.396,0.247,2.825,0.563,4.192
				c0.271,1.174,0.633,2.329,0.808,3.524c0.169,1.152,0.091,2.266-0.078,3.413c-0.319,2.176-1.536,4.062-2.429,6.031
				c-0.497,1.096-0.925,2.264-0.949,3.478c-0.021,1.123,0.075,2.246,0.219,3.359c0.32,2.466,0.883,4.892,1.302,7.342
				c0.172,1.005,0.336,2.012,0.353,3.034c0.015,0.91-0.017,1.82-0.048,2.73c-0.073,2.082-0.181,4.178,0.006,6.257
				c0.13,1.453,0.355,3.823,1.824,4.574c1.162,0.595,3.12,1.109,2.97,2.804c-0.087,0.98-0.679,1.703-1.23,2.472
				c-0.254,0.354-0.454,0.743-0.62,1.149c0.427-0.561,0.95-1.047,1.39-1.611c0.237-0.879,0.547-1.742,0.917-2.576
				c0.025-0.057,0.053-0.114,0.081-0.17C123.945,306.595,123.944,306.513,123.937,306.433z"/>
			<path style="opacity:0.55;fill:#BD8840;" d="M120.667,317.464c-0.015-0.886-0.042-1.772-0.03-2.658
				c0.001-0.086,0.003-0.174,0.004-0.261c-0.275,1.578-0.398,3.189-0.397,4.805c0.14-0.105,0.28-0.211,0.409-0.324
				C120.673,318.505,120.675,317.984,120.667,317.464z"/>
			<path style="fill:#3B2920;" d="M109.031,314.923c-0.113,0.043-0.225,0.093-0.335,0.146c-0.325,0.543-0.642,1.092-0.939,1.651
				c-1.093,2.059-1.973,4.214-2.73,6.414c0.072,0.099,0.151,0.191,0.244,0.271c1.875,1.629,14.291,0.393,14.123-4.758
				C119.394,318.648,112.296,313.673,109.031,314.923z"/>
		</g>
		<g>
			<path style="fill:#BD8840;" d="M226.825,258.888c0.11-2.573-0.985-5.09-2.292-8.12c-1.2-2.781-2.525-5.506-3.611-8.335
				c-1.131-2.946-1.934-5.985-2.445-9.098c-1.002-6.103-0.976-12.322-1.045-18.489c-0.061-5.484-0.143-11.026-1.036-16.451
				c-0.425-1.314-0.893-2.614-1.407-3.896c-1.205-3.625-2.686-7.174-5.159-10.13c-3.493-4.176-8.647-7.671-14.312-6.728
				c-9.194,1.531-16.342,11.033-18.864,19.421c-2.826,9.4-1.185,19.812,2.697,28.662c5.039,11.489,14.853,19.508,20.795,30.324
				c4.879,8.882,3.411,19.606,1.661,29.128c-1.049,5.709-1.941,11.445-2.818,17.182c-0.382,2.497-3.455,12.079-1.447,14.103
				c0.171,0.173,0.369,0.332,0.604,0.471c4.514,2.67,13.4,0.454,12.829-5.626c-0.05-0.535-0.055-1.068-0.03-1.598
				c-1.158-6.386-1.084-12.225,0.921-18.466c3.077-9.58,7.443-19.103,13.156-27.404
				C226.234,262.077,226.757,260.472,226.825,258.888z"/>
			<path style="fill:#FFF1E2;" d="M224.533,250.768c-1.2-2.781-2.525-5.506-3.611-8.335c-1.131-2.946-1.934-5.985-2.445-9.098
				c-1.002-6.104-0.976-12.322-1.045-18.489c-0.061-5.484-0.143-11.026-1.036-16.451c-0.425-1.314-0.893-2.614-1.407-3.896
				c-1.205-3.625-2.686-7.174-5.159-10.13c-3.493-4.176-8.647-7.671-14.311-6.728c-2.124,0.354-4.137,1.137-6.011,2.23
				c2.481,0.157,4.875,0.923,6.903,2.512c2.787,2.184,4.492,5.455,5.6,8.754c1.28,3.81,1.851,7.847,2.128,11.845
				c0.208,2.995,0.061,6.026,0.031,9.026c-0.032,3.135-0.021,6.276,0.285,9.399c0.306,3.124,0.929,6.186,2.086,9.109
				c1.131,2.857,2.571,5.581,4.065,8.262c2.934,5.262,6.267,10.456,8.012,16.271c0.74,2.466,1.132,5.042,0.982,7.62
				c-0.16,2.761-0.917,5.437-2.005,7.97c-1.233,2.869-2.716,5.611-3.85,8.528c-1.09,2.805-1.976,5.696-2.508,8.661
				c-0.535,2.983-0.738,6.076-0.703,9.156c0.271-1.894,0.707-3.799,1.332-5.743c3.077-9.58,7.443-19.103,13.156-27.404
				c1.211-1.759,1.735-3.364,1.802-4.948C226.935,256.315,225.84,253.799,224.533,250.768z"/>
			<path style="opacity:0.55;fill:#BD8840;" d="M224.533,250.768c-1.2-2.781-2.525-5.506-3.611-8.335
				c-1.131-2.946-1.934-5.985-2.445-9.098c-1.002-6.103-0.976-12.322-1.045-18.489c-0.061-5.484-0.143-11.026-1.036-16.451
				c-0.425-1.314-0.893-2.614-1.407-3.896c-1.199-3.606-2.673-7.137-5.122-10.084c0.165,0.267,0.333,0.531,0.489,0.803
				c2.012,3.511,3.301,7.393,4.142,11.34c1.85,8.683,1.75,17.661,1.958,26.493c0.203,8.621,0.461,17.551,3.348,25.769
				c0.887,2.524,2.034,4.901,2.392,7.587c0.324,2.435,0,4.85-0.796,7.165c-0.867,2.522-2.132,4.891-3.276,7.294
				c-1.47,3.089-2.708,6.282-3.827,9.514c-2.249,6.498-3.876,13.191-4.623,20.032c-0.521,4.771-0.232,9.555,0.484,14.282
				c0.621-0.943,0.941-2.076,0.818-3.391c-0.05-0.535-0.055-1.068-0.03-1.598c-1.158-6.386-1.084-12.225,0.921-18.466
				c3.077-9.58,7.443-19.103,13.156-27.404c1.211-1.759,1.735-3.364,1.802-4.948C226.935,256.315,225.84,253.799,224.533,250.768z"
				/>
			<path style="fill:#3B2920;" d="M197.551,309.987c-0.139,0.05-0.276,0.107-0.413,0.169c-0.411,0.654-0.812,1.314-1.189,1.988
				c-1.387,2.481-2.517,5.084-3.498,7.745c0.085,0.122,0.179,0.237,0.29,0.337c2.242,2.036,17.408,0.859,17.341-5.423
				C210.083,314.803,201.564,308.551,197.551,309.987z"/>
		</g>
	</g>
	<g>
		<g>
			<g>
				<g>
					<path style="fill:#D8BC91;" d="M100.776,50.267c-0.507-0.163-1.051-0.159-1.584-0.143c-0.231,0.007-0.464,0.015-0.696,0.024
						c-2.299,0.895-4.602,1.78-6.884,2.717c-3.419,1.403-6.793,2.933-9.998,4.778c-2.813,1.619-5.515,3.454-7.999,5.546
						c-2.06,1.735-3.989,3.648-5.668,5.759c-0.245,0.411-0.482,0.843-0.692,1.288c-0.915,1.944-1.313,4.084,0.374,5.304
						c0.983,0.711,2.021,0.146,2.883-0.462c1.003-0.706,1.799-1.131,3.038-1.391c2.385-0.5,4.842-0.334,7.26-0.376
						c3.384-0.059,6.772-0.557,9.791-2.168c6.358-3.392,10.676-10.557,11.511-17.632C102.26,52.27,102.177,50.719,100.776,50.267z"
						/>
				</g>
				<g>
					<path style="fill:#EADDBD;" d="M69.372,71.772c2.837-0.615,5.773-0.696,8.669-0.749c4.318-0.08,8.723-0.468,12.513-2.654
						c1.773-1.023,3.327-2.369,4.552-3.979c1.133-1.49,1.986-3.157,2.704-4.866c1.006-2.394,1.8-4.87,2.809-7.259
						c-0.205-0.271-0.493-0.488-0.894-0.613c-0.492-0.153-1.019-0.149-1.535-0.134c-0.224,0.006-0.449,0.014-0.675,0.023
						c-2.229,0.84-4.461,1.67-6.673,2.549c-3.314,1.317-6.584,2.752-9.691,4.483c-2.727,1.519-5.346,3.241-7.754,5.204
						c-1.997,1.628-3.866,3.423-5.494,5.403c-0.237,0.386-0.467,0.791-0.67,1.208c-0.371,0.762-0.651,1.555-0.736,2.305
						C67.43,72.259,68.456,71.971,69.372,71.772z"/>
				</g>
				<g>
					<path style="fill:#484236;" d="M100.776,50.267c-0.507-0.163-1.051-0.159-1.584-0.143c-0.231,0.007-0.464,0.015-0.696,0.024
						c-2.299,0.895-4.602,1.78-6.884,2.717c-1.458,0.598-2.907,1.223-4.34,1.882c0.331-0.121,0.664-0.227,1.011-0.321
						c0.945-0.258,1.893-0.505,2.845-0.734c1.883-0.452,3.786-0.837,5.712-1.054c0.134-0.015,0.193,0.13,0.179,0.235
						c-0.147,1.082-0.758,1.982-1.148,2.974c0.985-0.598,1.923-1.269,2.809-2.005c0.107-0.089,0.266-0.06,0.31,0.082
						c0.419,1.344,0.602,2.749,0.573,4.156c-0.037,1.782-0.375,3.507-0.869,5.198c1.827-2.997,3.02-6.391,3.418-9.766
						C102.26,52.27,102.177,50.719,100.776,50.267z"/>
				</g>
				<g>
					<path style="fill:#B3813B;" d="M73.977,70.848c2.77-1.731,5.16-3.953,7.43-6.286c1.295-1.331,2.552-2.697,3.844-4.03
						c1.278-1.318,2.582-2.648,4.021-3.793c2.631-2.094,5.356-4.113,8.349-5.665c0.663-0.344,1.345-0.664,2.039-0.954
						c-0.156-0.001-0.312,0.001-0.468,0.005c-0.231,0.007-0.464,0.015-0.696,0.024c-2.299,0.895-4.602,1.78-6.884,2.717
						c-3.419,1.403-6.793,2.933-9.998,4.778c-2.813,1.619-5.515,3.454-7.999,5.546c-2.06,1.735-3.989,3.648-5.668,5.759
						c-0.245,0.411-0.482,0.843-0.692,1.288c-0.654,1.39-1.039,2.878-0.592,4.06C69.195,73.354,71.681,72.282,73.977,70.848z"/>
				</g>
				<g>
					<path style="fill:#484236;" d="M90.612,55.201c-2.228,0.54-4.296,1.503-5.857,3.225c-0.518,0.572-0.929,1.247-1.328,1.905
						c-0.471,0.777-0.912,1.572-1.359,2.363c-0.568,1.005-1.14,2.019-1.775,2.988c0.375-0.37,0.747-0.743,1.114-1.12
						c1.295-1.331,2.552-2.697,3.844-4.03c1.278-1.318,2.582-2.648,4.021-3.793c0.741-0.59,1.491-1.172,2.25-1.741
						C91.218,55.06,90.914,55.127,90.612,55.201z"/>
				</g>
				<g>
					<path style="fill:#D8BC91;" d="M74.746,70.892c-0.628-0.961-1.209-1.965-1.5-3.085c-0.165-0.634-0.228-1.243-0.132-1.894
						c0.098-0.664,0.317-1.302,0.535-1.934c0.125-0.362,0.262-0.74,0.376-1.125c-0.136,0.112-0.274,0.222-0.409,0.336
						c-2.06,1.735-3.989,3.648-5.668,5.759c-0.245,0.411-0.482,0.843-0.692,1.288c-0.915,1.944-1.313,4.084,0.374,5.304
						c0.983,0.711,2.021,0.146,2.883-0.462c1.003-0.706,1.799-1.131,3.038-1.391c0.879-0.184,1.768-0.277,2.661-0.324
						C75.834,72.483,75.268,71.69,74.746,70.892z"/>
				</g>
			</g>
			<g>
				<g>
					<path style="fill:#D8BC91;" d="M4.843,50.267c0.507-0.163,1.051-0.159,1.584-0.143c0.231,0.007,0.464,0.015,0.696,0.024
						c2.299,0.895,4.602,1.78,6.884,2.717c3.419,1.403,6.793,2.933,9.998,4.778c2.813,1.619,5.515,3.454,7.999,5.546
						c2.06,1.735,3.989,3.648,5.668,5.759c0.245,0.411,0.482,0.843,0.692,1.288c0.915,1.944,1.313,4.084-0.374,5.304
						c-0.983,0.711-2.021,0.146-2.883-0.462c-1.003-0.706-1.799-1.131-3.038-1.391c-2.385-0.5-4.842-0.334-7.26-0.376
						c-3.384-0.059-6.772-0.557-9.791-2.168C8.66,67.752,4.342,60.586,3.506,53.512C3.359,52.27,3.442,50.719,4.843,50.267z"/>
				</g>
				<g>
					<path style="fill:#EADDBD;" d="M36.248,71.772c-2.837-0.615-5.773-0.696-8.669-0.749c-4.318-0.08-8.723-0.468-12.513-2.654
						c-1.773-1.023-3.327-2.369-4.552-3.979C9.38,62.9,8.528,61.232,7.81,59.523c-1.006-2.394-1.8-4.87-2.809-7.259
						c0.205-0.271,0.493-0.488,0.894-0.613c0.492-0.153,1.019-0.149,1.535-0.134c0.224,0.006,0.449,0.014,0.675,0.023
						c2.229,0.84,4.461,1.67,6.673,2.549c3.314,1.317,6.584,2.752,9.692,4.483c2.727,1.519,5.346,3.241,7.754,5.204
						c1.997,1.628,3.866,3.423,5.494,5.403c0.237,0.386,0.467,0.791,0.67,1.208c0.371,0.762,0.651,1.555,0.736,2.305
						C38.189,72.259,37.164,71.971,36.248,71.772z"/>
				</g>
				<g>
					<path style="fill:#484236;" d="M4.843,50.267c0.507-0.163,1.051-0.159,1.584-0.143c0.231,0.007,0.464,0.015,0.696,0.024
						c2.299,0.895,4.602,1.78,6.884,2.717c1.458,0.598,2.907,1.223,4.34,1.882c-0.331-0.121-0.664-0.227-1.011-0.321
						c-0.945-0.258-1.893-0.505-2.845-0.734c-1.883-0.452-3.786-0.837-5.712-1.054c-0.134-0.015-0.193,0.13-0.179,0.235
						c0.146,1.082,0.758,1.982,1.148,2.974c-0.984-0.598-1.923-1.269-2.809-2.005c-0.107-0.089-0.266-0.06-0.31,0.082
						c-0.419,1.344-0.602,2.749-0.572,4.156c0.037,1.782,0.375,3.507,0.869,5.198c-1.827-2.997-3.02-6.391-3.418-9.766
						C3.359,52.27,3.442,50.719,4.843,50.267z"/>
				</g>
				<g>
					<path style="fill:#B3813B;" d="M31.643,70.848c-2.77-1.731-5.16-3.953-7.43-6.286c-1.295-1.331-2.552-2.697-3.844-4.03
						c-1.278-1.318-2.582-2.648-4.021-3.793c-2.631-2.094-5.356-4.113-8.349-5.665c-0.663-0.344-1.345-0.664-2.039-0.954
						c0.156-0.001,0.313,0.001,0.468,0.005c0.231,0.007,0.464,0.015,0.696,0.024c2.299,0.895,4.602,1.78,6.884,2.717
						c3.419,1.403,6.793,2.933,9.998,4.778c2.813,1.619,5.515,3.454,7.999,5.546c2.06,1.735,3.989,3.648,5.668,5.759
						c0.245,0.411,0.482,0.843,0.692,1.288c0.654,1.39,1.039,2.878,0.592,4.06C36.425,73.354,33.939,72.282,31.643,70.848z"/>
				</g>
				<g>
					<path style="fill:#484236;" d="M15.008,55.201c2.228,0.54,4.296,1.503,5.857,3.225c0.518,0.572,0.93,1.247,1.328,1.905
						c0.471,0.777,0.912,1.572,1.359,2.363c0.568,1.005,1.14,2.019,1.775,2.988c-0.375-0.37-0.747-0.743-1.114-1.12
						c-1.295-1.331-2.552-2.697-3.844-4.03c-1.278-1.318-2.582-2.648-4.021-3.793c-0.741-0.59-1.491-1.172-2.25-1.741
						C14.402,55.06,14.705,55.127,15.008,55.201z"/>
				</g>
				<g>
					<path style="fill:#D8BC91;" d="M30.874,70.892c0.628-0.961,1.209-1.965,1.5-3.085c0.165-0.634,0.228-1.243,0.132-1.894
						c-0.098-0.664-0.317-1.302-0.535-1.934c-0.125-0.362-0.262-0.74-0.376-1.125c0.136,0.112,0.274,0.222,0.409,0.336
						c2.06,1.735,3.989,3.648,5.668,5.759c0.245,0.411,0.482,0.843,0.692,1.288c0.915,1.944,1.313,4.084-0.374,5.304
						c-0.983,0.711-2.021,0.146-2.883-0.462c-1.003-0.706-1.799-1.131-3.038-1.391c-0.879-0.184-1.768-0.277-2.661-0.324
						C29.786,72.483,30.352,71.69,30.874,70.892z"/>
				</g>
			</g>
		</g>
		<g>
			<path style="fill:#484236;" d="M45.984,58.077c-0.404-1.053-0.804-2.108-1.16-3.179c-0.353-1.062-0.614-2.155-0.942-3.225
				c-0.643-2.099-1.387-4.246-2.617-6.081c-0.448-0.669-0.97-1.273-1.575-1.805c-0.696-0.613-1.495-1.098-2.167-1.739
				c-0.708-0.675-1.301-1.457-1.965-2.173c-0.65-0.7-1.377-1.373-2.318-1.63c-0.891-0.243-1.829-0.23-2.72-0.475
				c-0.902-0.248-1.622-0.904-2.292-1.528c-0.687-0.64-1.398-1.398-2.296-1.734c-0.938-0.35-1.959-0.303-2.911-0.588
				c-0.892-0.267-1.679-0.907-2.35-1.533c-0.346-0.323-0.677-0.66-1.031-0.975c-0.363-0.323-0.757-0.58-1.161-0.847
				c-1.268-0.838-2.481-1.962-2.877-3.482c-0.245-0.939-0.137-1.886,0.149-2.79c0.854-5.121,5.162-17.296,6.352-19.183
				c0.053-0.083,0.025-0.143-0.03-0.174c-2.152,1.585-3.896,3.709-5.353,5.928c-1.667,2.539-3.017,5.288-4.125,8.113
				c-0.51,1.303-0.969,2.626-1.369,3.967c-0.437,1.467-0.771,2.948-0.826,4.483c-0.072,2.016,0.324,3.983,1.074,5.823
				c0.099,0.173,0.202,0.344,0.311,0.512c1.872,2.891,4.853,4.918,7.746,6.676c1.531,0.93,3.093,1.806,4.618,2.747
				c1.494,0.922,3.066,1.884,4.311,3.135c2.23,2.239,3.004,5.264,3.63,8.262c0.324,1.555,0.636,3.116,1.117,4.632
				c0.408,1.285,1.067,2.528,2.248,3.255c2.261,1.391,5.185,0.513,7.413-0.484c1.191-0.533,2.515-1.103,3.371-2.129
				c0.109-0.13,0.199-0.262,0.277-0.396C46.339,58.999,46.16,58.538,45.984,58.077z"/>
			<path style="fill:#484236;" d="M45.984,58.077c-0.404-1.053-0.804-2.108-1.16-3.179c-0.353-1.062-0.614-2.155-0.942-3.225
				c-0.113-0.369-0.231-0.739-0.352-1.109c-0.075,0.003-0.151,0.006-0.226,0.012c-1.078,0.078-2.136,0.328-3.195,0.531
				c-1.57,0.3-3.547,0.672-4.862-0.503c-0.511-0.456-0.918-1.123-0.935-1.822c-0.015-0.614,0.282-1.176,0.681-1.624
				c1.014-1.142,2.637-1.755,4.09-2.085c0.496-0.113,1.044-0.212,1.6-0.255c-0.304-0.367-0.631-0.713-0.991-1.03
				c-0.046-0.04-0.095-0.077-0.142-0.116c-0.742,0.024-1.482,0.136-2.211,0.266c-0.863,0.155-1.721,0.342-2.585,0.491
				c-0.738,0.127-1.497,0.245-2.248,0.203c-0.573-0.032-1.176-0.165-1.601-0.577c-0.417-0.405-0.618-1.042-0.506-1.612
				c0.123-0.628,0.607-1.112,1.107-1.472c0.637-0.458,1.385-0.767,2.128-1.007c0.529-0.171,1.07-0.302,1.617-0.399
				c-0.258-0.259-0.525-0.51-0.819-0.724c-0.764,0.115-1.515,0.321-2.255,0.539c-1.439,0.422-2.876,0.967-4.37,1.154
				c-1.029,0.129-2.257-0.027-2.631-1.168c-0.407-1.243,1.147-2.148,2.059-2.571c0.363-0.168,0.737-0.313,1.117-0.438
				c-0.042-0.038-0.084-0.077-0.125-0.115c-0.124-0.115-0.249-0.234-0.375-0.354c-0.379,0.094-0.754,0.204-1.125,0.32
				c-1.223,0.382-2.426,0.858-3.678,1.141c-0.795,0.18-1.936,0.385-2.558-0.307c-0.845-0.939-0.233-2.07,0.582-2.781
				c0.326-0.284,0.686-0.53,1.066-0.738c-0.158-0.093-0.314-0.191-0.464-0.299c-0.241,0.086-0.48,0.175-0.718,0.265
				c-1.545,0.585-5.373,2.487-5.869-0.323c-0.148-0.837-0.044-1.684,0.358-2.437c0.225-0.422,0.516-0.807,0.731-1.235
				c0.129-0.256,0.198-0.522,0.228-0.796c-0.362-0.482-0.648-1.016-0.804-1.614c-0.128-0.49-0.158-0.982-0.118-1.469
				c-0.224-0.774-0.138-1.539,0.205-2.294c0.057-0.125,0.172-0.139,0.268-0.093c1.188-5.572,5.033-16.35,6.147-18.117
				c0.053-0.083,0.025-0.143-0.03-0.174c-2.152,1.585-3.896,3.709-5.353,5.928c-1.667,2.539-3.017,5.288-4.125,8.113
				c-0.51,1.303-0.969,2.626-1.369,3.967c-0.437,1.467-0.771,2.948-0.826,4.483c-0.072,2.016,0.324,3.983,1.074,5.823
				c0.099,0.173,0.202,0.344,0.311,0.512c1.872,2.891,4.853,4.918,7.746,6.676c1.531,0.93,3.093,1.806,4.618,2.747
				c1.494,0.922,3.066,1.884,4.311,3.135c2.23,2.239,3.004,5.264,3.63,8.262c0.324,1.555,0.636,3.116,1.117,4.632
				c0.408,1.285,1.067,2.528,2.248,3.255c2.261,1.391,5.185,0.513,7.413-0.484c1.191-0.533,2.515-1.103,3.371-2.129
				c0.109-0.13,0.199-0.262,0.277-0.396C46.339,58.999,46.16,58.538,45.984,58.077z"/>
		</g>
		<g>
			<path style="fill:#484236;" d="M58.436,58.077c0.404-1.053,0.804-2.108,1.16-3.179c0.353-1.062,0.614-2.155,0.942-3.225
				c0.643-2.099,1.387-4.246,2.617-6.081c0.448-0.669,0.97-1.273,1.575-1.805c0.696-0.613,1.495-1.098,2.167-1.739
				c0.708-0.675,1.301-1.457,1.965-2.173c0.65-0.7,1.377-1.373,2.318-1.63c0.891-0.243,1.829-0.23,2.721-0.475
				c0.902-0.248,1.622-0.904,2.292-1.528c0.687-0.64,1.398-1.398,2.296-1.734c0.938-0.35,1.959-0.303,2.911-0.588
				c0.892-0.267,1.68-0.907,2.35-1.533c0.346-0.323,0.677-0.66,1.031-0.975c0.363-0.323,0.757-0.58,1.161-0.847
				c1.268-0.838,2.481-1.962,2.877-3.482c0.245-0.939,0.137-1.886-0.149-2.79c-0.854-5.121-5.162-17.296-6.352-19.183
				c-0.053-0.083-0.025-0.143,0.03-0.174c2.152,1.585,3.896,3.709,5.353,5.928c1.667,2.539,3.017,5.288,4.124,8.113
				c0.51,1.303,0.969,2.626,1.369,3.967c0.437,1.467,0.771,2.948,0.826,4.483c0.072,2.016-0.325,3.983-1.074,5.823
				c-0.099,0.173-0.202,0.344-0.311,0.512c-1.873,2.891-4.853,4.918-7.746,6.676c-1.531,0.93-3.093,1.806-4.618,2.747
				c-1.494,0.922-3.066,1.884-4.311,3.135c-2.23,2.239-3.004,5.264-3.63,8.262c-0.324,1.555-0.636,3.116-1.117,4.632
				c-0.408,1.285-1.067,2.528-2.248,3.255c-2.261,1.391-5.185,0.513-7.413-0.484c-1.192-0.533-2.515-1.103-3.371-2.129
				c-0.108-0.13-0.199-0.262-0.277-0.396C58.081,58.999,58.259,58.538,58.436,58.077z"/>
			<path style="fill:#484236;" d="M58.436,58.077c0.404-1.053,0.804-2.108,1.16-3.179c0.353-1.062,0.614-2.155,0.942-3.225
				c0.113-0.369,0.231-0.739,0.352-1.109c0.075,0.003,0.151,0.006,0.226,0.012c1.078,0.078,2.136,0.328,3.195,0.531
				c1.57,0.3,3.547,0.672,4.862-0.503c0.511-0.456,0.918-1.123,0.935-1.822c0.015-0.614-0.282-1.176-0.681-1.624
				c-1.014-1.142-2.637-1.755-4.09-2.085c-0.496-0.113-1.044-0.212-1.6-0.255c0.303-0.367,0.631-0.713,0.991-1.03
				c0.046-0.04,0.095-0.077,0.142-0.116c0.742,0.024,1.482,0.136,2.211,0.266c0.863,0.155,1.721,0.342,2.585,0.491
				c0.738,0.127,1.497,0.245,2.248,0.203c0.572-0.032,1.176-0.165,1.601-0.577c0.417-0.405,0.617-1.042,0.506-1.612
				c-0.123-0.628-0.607-1.112-1.107-1.472c-0.637-0.458-1.385-0.767-2.128-1.007c-0.529-0.171-1.07-0.302-1.617-0.399
				c0.258-0.259,0.525-0.51,0.819-0.724c0.764,0.115,1.516,0.321,2.255,0.539c1.438,0.422,2.876,0.967,4.37,1.154
				c1.029,0.129,2.257-0.027,2.631-1.168c0.407-1.243-1.147-2.148-2.059-2.571c-0.363-0.168-0.737-0.313-1.117-0.438
				c0.042-0.038,0.084-0.077,0.125-0.115c0.124-0.115,0.249-0.234,0.375-0.354c0.379,0.094,0.754,0.204,1.125,0.32
				c1.223,0.382,2.426,0.858,3.678,1.141c0.795,0.18,1.936,0.385,2.558-0.307c0.845-0.939,0.233-2.07-0.582-2.781
				c-0.326-0.284-0.687-0.53-1.067-0.738c0.158-0.093,0.314-0.191,0.464-0.299c0.241,0.086,0.48,0.175,0.718,0.265
				c1.546,0.585,5.373,2.487,5.868-0.323c0.148-0.837,0.044-1.684-0.358-2.437c-0.225-0.422-0.515-0.807-0.731-1.235
				c-0.129-0.256-0.198-0.522-0.228-0.796c0.362-0.482,0.648-1.016,0.804-1.614c0.128-0.49,0.158-0.982,0.118-1.469
				c0.224-0.774,0.138-1.539-0.205-2.294c-0.057-0.125-0.172-0.139-0.268-0.093c-1.188-5.572-5.033-16.35-6.147-18.117
				c-0.053-0.083-0.025-0.143,0.03-0.174c2.152,1.585,3.896,3.709,5.353,5.928c1.667,2.539,3.017,5.288,4.124,8.113
				c0.51,1.303,0.969,2.626,1.369,3.967c0.437,1.467,0.771,2.948,0.826,4.483c0.072,2.016-0.325,3.983-1.074,5.823
				c-0.099,0.173-0.202,0.344-0.311,0.512c-1.873,2.891-4.853,4.918-7.746,6.676c-1.531,0.93-3.093,1.806-4.618,2.747
				c-1.494,0.922-3.066,1.884-4.311,3.135c-2.23,2.239-3.004,5.264-3.63,8.262c-0.324,1.555-0.636,3.116-1.117,4.632
				c-0.408,1.285-1.067,2.528-2.248,3.255c-2.261,1.391-5.185,0.513-7.413-0.484c-1.192-0.533-2.515-1.103-3.371-2.129
				c-0.108-0.13-0.199-0.262-0.277-0.396C58.081,58.999,58.259,58.538,58.436,58.077z"/>
		</g>
		<path style="fill:#B5793A;" d="M74.555,75.005c-0.804-1.949-1.806-3.802-2.829-5.642c-0.059-0.107-0.119-0.214-0.178-0.321
			c0.06-0.582,0.142-1.162,0.269-1.736c0.351-1.578,0.946-3.088,1.582-4.57c0.546-1.273,0.94-2.689,0.405-4.034
			c-0.476-1.197-1.573-2.021-2.639-2.666c-1.095-0.662-2.27-1.21-3.429-1.75c-1.235-0.575-2.495-1.109-3.792-1.526
			c-1.223-0.393-2.515-0.711-3.807-0.698c-1.065,0.011-2.182,0.272-2.925,1.09c-0.419,0.461-0.746,1.017-1.07,1.545
			c-0.379,0.617-0.754,1.236-1.154,1.84c-0.556,0.84-1.276,1.748-2.177,2.291c-0.902-0.543-1.621-1.451-2.177-2.291
			c-0.4-0.604-0.775-1.223-1.154-1.84c-0.325-0.528-0.651-1.084-1.07-1.545c-0.743-0.818-1.86-1.079-2.925-1.09
			c-1.292-0.013-2.584,0.305-3.807,0.698c-1.298,0.417-2.558,0.951-3.792,1.526c-1.159,0.54-2.334,1.088-3.429,1.75
			c-1.066,0.645-2.163,1.47-2.639,2.666c-0.535,1.345-0.141,2.761,0.405,4.034c0.636,1.482,1.231,2.992,1.582,4.57
			c0.128,0.574,0.209,1.154,0.269,1.736c-0.059,0.107-0.118,0.214-0.178,0.321c-1.024,1.84-2.025,3.693-2.829,5.642
			c-0.737,1.786-1.297,3.713-1.115,5.663c0.167,1.775,0.996,3.377,2.089,4.757c0.394,0.498,0.824,0.966,1.271,1.417
			c0,0.011,0,0.021-0.001,0.032c-0.079,1.896-0.179,3.791-0.255,5.688c-0.149,3.674-0.254,7.374,0.297,11.022
			c0.542,3.588,1.887,6.938,3.474,10.183c1.363,2.787,3.241,5.836,6.154,7.205c1.548,0.728,3.277,1.115,4.966,1.333
			c1.56,0.202,3.284,0.348,4.821-0.057c0.016-0.004,0.029-0.014,0.044-0.02c0.015,0.006,0.028,0.016,0.044,0.02
			c1.538,0.405,3.261,0.259,4.821,0.057c1.689-0.218,3.418-0.606,4.966-1.333c2.913-1.369,4.79-4.418,6.154-7.205
			c1.587-3.245,2.932-6.595,3.474-10.183c0.551-3.648,0.445-7.348,0.297-11.022c-0.077-1.896-0.176-3.792-0.255-5.688
			c0-0.011,0-0.022-0.001-0.032c0.447-0.451,0.877-0.919,1.271-1.417c1.093-1.38,1.923-2.981,2.089-4.757
			C75.852,78.718,75.292,76.791,74.555,75.005z"/>
		<path style="opacity:0.47;fill:#B5793A;" d="M70.883,107.105c-1.328,1.808-3.727,4.325-6.052,2.5
			c-0.819-0.643-1.3-1.514-1.727-2.438c-0.492-1.068-0.947-2.154-1.416-3.232c-1.236-2.843-2.515-5.69-4.13-8.342
			c-0.722-1.185-1.514-2.35-2.484-3.348c-0.714-0.733-1.579-1.445-2.611-1.643c-1.008-0.194-1.935,0.286-2.642,0.974
			c-1.511,1.472-2.333,3.58-3.016,5.531c-0.407,1.163-0.764,2.343-1.136,3.517c-0.352,1.108-0.758,2.19-1.157,3.282
			c-0.951,2.603-1.854,5.284-3.345,7.639c-0.594,0.939-1.42,2.083-2.636,2.174c-0.932,0.07-1.726-0.589-2.29-1.258
			c-0.032-0.038-0.058-0.081-0.09-0.12c0.219,0.477,0.443,0.953,0.674,1.425c1.363,2.787,3.241,5.836,6.154,7.205
			c1.548,0.728,3.277,1.115,4.966,1.333c1.56,0.202,3.284,0.348,4.821-0.057c0.016-0.004,0.029-0.014,0.044-0.02
			c0.015,0.006,0.028,0.016,0.044,0.02c1.538,0.405,3.261,0.259,4.821,0.057c1.689-0.218,3.418-0.606,4.966-1.333
			c2.913-1.369,4.79-4.418,6.154-7.205c1.275-2.607,2.386-5.285,3.058-8.097C71.544,106.158,71.225,106.64,70.883,107.105z"/>
		<path style="opacity:0.47;fill:#B5793A;" d="M37.912,54.441c1.306-0.496,2.624-1.026,4.024-1.178
			c1.437-0.157,2.834,0.21,4.034,1.012c1.602,1.07,2.799,2.632,3.731,4.296c0.891,1.59,1.615,3.297,2.736,4.746
			c1.358-1.339,2.229-3.08,3.203-4.699c0.938-1.561,2.005-2.995,3.503-4.062c1.454-1.035,3.172-1.618,4.948-1.745
			c-0.049-0.016-0.097-0.035-0.147-0.051c-1.223-0.393-2.515-0.711-3.807-0.698c-1.065,0.011-2.182,0.272-2.925,1.09
			c-0.419,0.461-0.746,1.017-1.07,1.545c-0.379,0.617-0.754,1.236-1.154,1.84c-0.556,0.84-1.276,1.748-2.177,2.291
			c-0.902-0.543-1.621-1.451-2.177-2.291c-0.4-0.604-0.775-1.223-1.154-1.84c-0.325-0.528-0.651-1.084-1.07-1.545
			c-0.743-0.818-1.86-1.079-2.925-1.09c-1.292-0.013-2.584,0.305-3.807,0.698c-1.298,0.417-2.558,0.951-3.792,1.526
			c-0.481,0.224-0.964,0.452-1.444,0.686C36.934,54.806,37.425,54.627,37.912,54.441z"/>
		<path style="fill:#EADDBD;" d="M72.625,71.01c-1.13-0.477-2.363-0.629-3.61-0.279c-1.947,0.546-3.52,2.019-4.777,3.541
			c-1.574,1.907-2.794,4.106-3.819,6.348c-1.034,2.262-1.871,4.621-2.49,7.03c-0.401,1.559-0.757,3.185-0.819,4.808
			c0.702-1.048,1.551-2.022,2.682-2.605c1.012-0.521,2.145-0.682,3.267-0.764c1.569-0.114,3.14-0.098,4.692-0.391
			c1.617-0.306,3.149-0.866,4.568-1.637c-0.003-0.063-0.006-0.125-0.008-0.188c0-0.011,0-0.022-0.001-0.032
			c0.447-0.451,0.877-0.919,1.271-1.417c1.093-1.38,1.923-2.981,2.089-4.757c0.183-1.95-0.377-3.877-1.114-5.663
			C73.989,73.635,73.324,72.314,72.625,71.01z"/>
		<path style="fill:#EADDBD;" d="M33.251,88.171c0.863,0.64,1.836,1.108,2.886,1.396c0.835,0.229,1.739,0.409,2.607,0.417
			c1.195,0.011,2.386-0.122,3.578,0.023c1.77,0.216,3.557,0.986,4.894,2.174c0.732,0.65,1.285,1.438,1.656,2.308
			c-0.187-3.173-0.75-6.342-1.526-9.418c-0.693-2.743-1.456-5.537-2.938-7.975c-1.455-2.394-3.804-4.379-6.601-4.952
			c-2.221-0.455-4.327,0.383-5.892,1.966c-0.337,0.341-0.641,0.711-0.929,1.093c-0.697,1.73-1.212,3.586-1.036,5.465
			c0.167,1.775,0.996,3.377,2.089,4.757c0.394,0.498,0.824,0.966,1.271,1.417c0,0.011,0,0.021-0.001,0.032
			C33.292,87.306,33.271,87.739,33.251,88.171z"/>
		<g>
			<path style="fill:#DC9349;" d="M64.272,113.657c-0.583-2.009-1.301-3.98-1.952-5.968c-0.659-2.014-1.281-4.042-1.767-6.106
				c-0.271-1.153-0.457-2.323-0.641-3.492c-0.407-2.575-0.789-5.186-1.671-7.651c-0.535-1.497-1.306-2.967-2.427-4.081
				c-1.23-0.501-2.212-0.393-2.623-0.309c-0.412-0.084-1.393-0.192-2.623,0.309c-1.12,1.114-1.891,2.583-2.427,4.081
				c-0.882,2.465-1.264,5.076-1.671,7.651c-0.185,1.169-0.37,2.339-0.641,3.492c-0.486,2.064-1.108,4.092-1.767,6.106
				c-0.651,1.987-1.369,3.959-1.952,5.968c-0.464,1.601-0.778,3.243-0.893,4.905c0.15,1.165,0.393,2.144,0.752,2.851
				c1.442,2.842,3.79,4.928,6.898,6.117c1.309,0.5,2.757,0.835,4.325,1.006c1.569-0.17,3.016-0.505,4.325-1.006
				c3.108-1.188,5.456-3.275,6.898-6.117c0.359-0.707,0.602-1.686,0.752-2.851C65.05,116.9,64.736,115.257,64.272,113.657z"/>
			<path style="fill:#EADDBD;" d="M63.473,117.961c-0.737,0.774-1.728,1.328-2.802,1.409c-1.297,0.098-2.598-0.231-3.863-0.466
				c-1.219-0.227-2.464-0.337-3.703-0.232c-1.302,0.11-2.582,0.4-3.862,0.656c-1.195,0.238-2.412,0.477-3.635,0.475
				c-1.192-0.002-2.271-0.364-3.153-1.186c-0.444-0.413-0.828-0.932-1.085-1.5c-0.066,0.48-0.121,0.962-0.155,1.446
				c0.15,1.165,0.393,2.144,0.752,2.851c1.442,2.842,3.79,4.929,6.898,6.117c1.309,0.5,2.757,0.836,4.325,1.006
				c1.569-0.17,3.016-0.505,4.325-1.006c3.108-1.188,5.456-3.275,6.898-6.117c0.359-0.708,0.602-1.686,0.752-2.851
				c-0.065-0.931-0.197-1.855-0.378-2.77C64.49,116.592,64.07,117.334,63.473,117.961z"/>
			<g>
				<g>
					<path style="fill:#674238;" d="M53.014,123.355c-0.204,0-0.369-0.201-0.369-0.448v-4.33c0-0.248,0.165-0.449,0.369-0.449
						c0.204,0,0.369,0.201,0.369,0.449v4.33C53.383,123.154,53.218,123.355,53.014,123.355z"/>
					<path style="fill:#674238;" d="M53.014,122.195c-0.204,0-0.369,0.201-0.369,0.449c0,0.393-0.208,0.768-0.619,1.114
						c-0.415,0.349-0.975,0.615-1.598,0.792c-0.577,0.329-1.179,0.614-1.809,0.839c-0.277,0.099-0.56,0.181-0.843,0.256
						c0.265,0.03,0.533,0.051,0.805,0.051c1.447,0,2.942-0.424,3.865-1.201c0.614-0.516,0.938-1.156,0.938-1.851
						C53.383,122.396,53.218,122.195,53.014,122.195z"/>
					<path style="fill:#674238;" d="M55.693,124.573c-0.659-0.176-1.255-0.45-1.69-0.816c-0.411-0.346-0.62-0.721-0.62-1.114
						c0-0.248-0.165-0.449-0.369-0.449c-0.204,0-0.369,0.201-0.369,0.449c0,0.695,0.324,1.335,0.938,1.851
						c0.923,0.777,2.417,1.201,3.864,1.201c0.476,0,0.944-0.051,1.388-0.145C57.736,125.401,56.668,125.085,55.693,124.573z"/>
				</g>
			</g>
			<g>
				<path style="fill:#312017;" d="M53.658,117.925c-0.25-1.007-1.032-1.726-2.02-2.001c-0.69-0.192-1.35-0.098-2.051-0.027
					c-0.802,0.082-1.607,0.164-2.414,0.151c-0.313-0.005-0.717-0.017-0.984-0.144c-0.213-0.102-0.231-0.209-0.221-0.451
					c0.001-0.023-0.007-0.037-0.009-0.057c0.027-0.075,0.056-0.15,0.086-0.225c0.355-0.884,0.804-1.735,0.876-2.702
					c0.016-0.22-0.309-0.099-0.353,0.035c-0.263,0.794-0.683,1.499-1.105,2.215c-0.336,0.57-0.726,1.204-0.734,1.887
					c-0.009,0.764,0.481,1.316,1.103,1.699c0.951,0.585,2.067,0.878,3.121,1.218c1.202,0.387,2.359,0.885,3.235,1.827
					c0.331,0.355,0.833,0.02,1-0.33C53.64,120.072,53.917,118.968,53.658,117.925z"/>
				<path style="fill:#312017;" d="M52.893,121.02c0.166,0.349,0.669,0.685,1,0.33c0.876-0.942,2.033-1.44,3.235-1.827
					c1.054-0.34,2.17-0.632,3.121-1.218c0.622-0.382,1.112-0.935,1.103-1.699c-0.008-0.683-0.399-1.317-0.734-1.887
					c-0.422-0.716-0.843-1.421-1.105-2.215c-0.044-0.134-0.369-0.255-0.353-0.035c0.072,0.967,0.521,1.818,0.876,2.702
					c0.03,0.075,0.059,0.15,0.086,0.225c-0.002,0.02-0.01,0.034-0.009,0.057c0.01,0.243-0.008,0.35-0.221,0.451
					c-0.267,0.127-0.671,0.139-0.984,0.144c-0.807,0.013-1.613-0.07-2.414-0.151c-0.701-0.071-1.361-0.165-2.051,0.027
					c-0.988,0.275-1.77,0.993-2.02,2.001C52.164,118.968,52.441,120.072,52.893,121.02z"/>
			</g>
		</g>
		<path style="fill:#484236;" d="M69.596,61.522c-0.792,2.029-1.492,4.088-1.943,6.224c-0.433,2.054-0.593,4.136-0.455,6.231
			c0.054,0.822,0.006,1.659-0.229,2.452c-0.208,0.701-0.552,1.349-0.927,1.973c-0.975,1.624-2.086,3.18-2.697,4.99
			c-0.569,1.687-0.737,3.456-0.774,5.226c-0.041,1.963-0.009,3.925-0.062,5.888c-0.059,2.168-0.041,4.338,0.086,6.503
			c0.194,3.307,0.669,6.581,1.381,9.81c-0.283-4.903-0.847-9.819-0.391-14.726c0.118-1.274,0.307-2.544,0.598-3.791
			c0.243-1.038,0.564-1.989,1.276-2.803c1.281-1.465,3.216-2.133,4.609-3.473c0.658-0.633,1.299-1.301,1.878-2.008
			c0.55-0.671,1.245-1.544,1.298-2.45c0.024-0.413-0.027-0.84-0.37-1.109c-0.331-0.259-0.765-0.393-1.137-0.58
			c-0.893-0.449-1.786-1.126-2.22-2.051c-0.394-0.84-0.426-1.775-0.415-2.686c0.013-1.159-0.002-2.271-0.16-3.422
			c-0.359-2.619-0.275-5.253,0.197-7.852C69.28,63.085,69.434,62.302,69.596,61.522z"/>
		<path style="fill:#484236;" d="M43.358,108.501c0.046-2.108-0.028-4.219-0.207-6.32c-0.158-1.849-0.353-3.719-0.764-5.531
			c-0.391-1.723-0.911-3.414-1.266-5.145c-0.222-1.08-0.396-2.205-0.361-3.317c-0.022-0.072-0.049-0.143-0.069-0.215
			c-0.625-2.227-0.454-4.537-0.774-6.809c-0.148-1.048-0.363-2.051-0.988-2.924c-0.198-0.277-0.417-0.54-0.563-0.851
			c-0.183-0.389-0.256-0.811-0.283-1.237c-0.081-1.301,0.27-2.578,0.444-3.857c0.155-1.133,0.058-2.258-0.201-3.369
			c-0.434-1.863-1.346-3.549-2.457-5.092c-1.261-1.752-2.739-3.348-4.081-5.038c-0.019,0.051-0.032,0.103-0.048,0.155
			c0.299,0.558,0.622,1.104,0.955,1.642c0.874,1.411,1.842,2.785,2.581,4.274c0.41,0.825,0.653,1.739,0.901,2.623
			c0.279,0.995,0.559,2.049,0.602,3.087c0.089,2.186-0.896,4.275-0.827,6.467c0.035,1.125,0.3,2.278,0.562,3.37
			c0.259,1.08,0.581,2.145,0.936,3.197c0.733,2.172,1.278,4.365,1.711,6.616c0.209,1.091,0.406,2.184,0.625,3.273
			c0.233,1.162,0.538,2.31,0.797,3.466c0.504,2.247,0.953,4.507,1.339,6.778c0.503,2.961,0.888,5.94,1.165,8.93
			C43.237,111.287,43.328,109.894,43.358,108.501z"/>
		<g>
			<g>
				<path style="fill:#3C3631;" d="M45.581,87.048c0,0,0.748-9.089-7.038-9.396l-6.444,0.438c0,0,1.097,9.22,7.534,9.38
					C46.069,87.628,45.581,87.048,45.581,87.048z"/>
				<g>
					<defs>
						<path id="SVGID_1_" d="M45.581,87.048c0,0,0.269-7.989-6.951-8.274l-6.022,0.628c0,0,1.017,7.921,6.985,8.069
							C45.561,87.618,45.581,87.048,45.581,87.048z"/>
					</defs>
					<use xlink:href="#SVGID_1_"  style="overflow:visible;fill:#FFFFFF;"/>
					<clipPath id="SVGID_00000160900794592480867090000009269955930339443589_">
						<use xlink:href="#SVGID_1_"  style="overflow:visible;"/>
					</clipPath>
					<g style="clip-path:url(#SVGID_00000160900794592480867090000009269955930339443589_);">
						<g>
							<circle style="fill:#62493E;" cx="39.095" cy="83.704" r="5.112"/>
							<g>
								<path style="fill:#312017;" d="M42.388,83.704c0,1.819-1.474,3.293-3.293,3.293c-1.819,0-3.293-1.474-3.293-3.293
									c0-1.819,1.474-3.293,3.293-3.293C40.914,80.411,42.388,81.885,42.388,83.704z"/>
								<path style="fill:#FFFFFF;" d="M38.208,81.614c0,0.664-0.539,1.203-1.203,1.203c-0.664,0-1.203-0.539-1.203-1.203
									s0.539-1.203,1.203-1.203C37.669,80.411,38.208,80.95,38.208,81.614z"/>
							</g>
						</g>
					</g>
				</g>
			</g>
			<g>
				<path style="fill:#3C3631;" d="M60.995,87.048c0,0-0.749-9.089,7.038-9.396l6.444,0.438c0,0-1.097,9.22-7.534,9.38
					C60.507,87.628,60.995,87.048,60.995,87.048z"/>
				<g>
					<defs>
						<path id="SVGID_00000096048874406355793030000012196519377487061430_" d="M60.995,87.048c0,0-0.269-7.989,6.951-8.274
							l6.021,0.628c0,0-1.017,7.921-6.985,8.069C61.015,87.618,60.995,87.048,60.995,87.048z"/>
					</defs>
					<use xlink:href="#SVGID_00000096048874406355793030000012196519377487061430_"  style="overflow:visible;fill:#FFFFFF;"/>
					<clipPath id="SVGID_00000016050531295382722370000010296444035625339306_">
						<use xlink:href="#SVGID_00000096048874406355793030000012196519377487061430_"  style="overflow:visible;"/>
					</clipPath>
					<g style="clip-path:url(#SVGID_00000016050531295382722370000010296444035625339306_);">
						<g>
							<circle style="fill:#62493E;" cx="67.481" cy="83.704" r="5.112"/>
							<g>
								<path style="fill:#312017;" d="M64.188,83.704c0,1.819,1.474,3.293,3.293,3.293c1.819,0,3.293-1.474,3.293-3.293
									c0-1.819-1.474-3.293-3.293-3.293C65.662,80.411,64.188,81.885,64.188,83.704z"/>
								<circle style="fill:#FFFFFF;" cx="65.082" cy="81.614" r="1.203"/>
							</g>
						</g>
					</g>
				</g>
			</g>
		</g>
	</g>
</g>
</svg>
