<?xml version="1.0" encoding="utf-8"?>
<!-- Generator: Adobe Illustrator 27.5.0, SVG Export Plug-In . SVG Version: 6.00 Build 0)  -->
<svg version="1.1" id="Layer_1" xmlns="http://www.w3.org/2000/svg" xmlns:xlink="http://www.w3.org/1999/xlink" x="0px" y="0px"
	 viewBox="0 0 2655.844 2000.894" style="enable-background:new 0 0 2655.844 2000.894;" xml:space="preserve">
<g>
	<g>
		<path style="fill:#6FB9CF;" d="M1849.929,1643.842c-50.199-23.315-105.411-37.832-159.244-50.418
			c-123-28.756-249.223-42.202-375.37-47.786c-63.573-2.814-127.17-3.998-190.752-0.808c-62.419,3.131-124.643,9.717-186.425,18.945
			c-60.652,9.059-121.121,20.305-180.828,34.184c-40.721,9.465-81.433,21.19-118.739,39.966c-5.086,1.77-10.151,3.599-15.178,5.538
			c-24.811,9.572-48.788,21.331-71.121,35.652c-20.672,13.256-43.494,29.03-55.794,50.666c-11.252,19.794-7.01,40.287,8.562,56.54
			c18.066,18.855,42.007,33.399,65.145,45.427c48.089,24.996,101.119,40.22,154.028,51.782
			c120.401,26.312,244.513,28.533,367.323,26.212c122.277-2.312,244.836-5.77,366.289-20.806
			c98.628-12.21,197.711-31.237,291.333-64.703c32.436-11.594,64.516-25.027,94.081-42.638
			c23.95-14.265,52.424-34.108,60.423-62.097C1914.151,1682.796,1879.648,1657.647,1849.929,1643.842z"/>
		<path style="fill:#6FB9CF;" d="M700.496,1578.841c-14.866-4.095-30.449,0.879-45.2,3.141c-18.516,2.838-36.87,6.538-55.057,10.975
			c-34.089,8.318-67.554,19.137-99.582,33.353c-4.584,2.035-9.131,4.131-13.634,6.302c-8.939,2.88-17.811,5.955-26.497,9.759
			c-32.087,14.049-62.586,32.8-89.409,55.111c-22.101,18.383-45.425,42.273-48.692,71.954
			c-3.573,32.467,20.867,58.763,48.083,73.218c9.264,4.921,18.906,8.786,28.962,11.798c10.348,3.1,21.587,6.235,32.503,5.971
			c6.344-0.153,19.578-3.707,16.14-12.706c-1.773-4.644-7.426-8.34-11.247-11.216c-4.663-3.51-9.359-6.799-13.809-10.582
			c-14.043-11.939-28.18-25.7-35.356-42.884c-6.246-14.956-3.745-29.684,5.595-42.744c10.375-14.507,25.424-26.109,40.046-36.233
			c15.886-11,32.913-20.271,50.351-28.661c36.262-17.445,73.821-32.713,111.59-46.69c19.797-7.326,39.518-14.822,59.258-22.287
			c11.781-4.455,24.245-7.102,35.38-13.139c4.541-2.462,9.3-5.573,11.74-10.233C702.457,1581.532,702.589,1579.418,700.496,1578.841
			z"/>
		<path style="fill:#6FB9CF;" d="M813.99,1552.508c-24.741-6.922-52.516-2.742-75.871,7.023c-1.594,0.666-3.884,2.976-3.303,4.951
			c-1.318,0.863-2.558,1.775-3.68,2.726c-1.24,1.05-1.454,2.957-0.209,4.026c3.449,2.961,8.469,3.736,12.846,4.255
			c6.415,0.761,12.951,0.596,19.38,0.103c13.516-1.037,27.837-3.237,40.214-8.948c4.925-2.273,10.22-5.416,12.283-10.635
			C816.214,1554.584,815.518,1552.935,813.99,1552.508z"/>
		<path style="fill:#6FB9CF;" d="M590.406,1915.339c-7.033-15.481-26.366-23.146-41.913-27.557
			c-7.604-2.158-15.333-4.081-23.146-5.343c-5.137-0.829-11.328-1.924-16.819-0.97c-7.611-0.548-18.94,0.394-17.013,9.981
			c1.87,9.302,13.999,14.458,21.702,18.03c13.099,6.073,27.115,10.708,41.355,13.364c10.353,1.931,26.521,4.707,34.637-4.075
			C589.926,1917.993,590.919,1916.468,590.406,1915.339z"/>
		<path style="fill:#6FB9CF;" d="M527.903,1827.63c-3.763-1.41-7.668-2.488-11.615-3.274c-3.372-0.672-6.78-1.247-10.218-0.905
			c-1.12,0.111-2.563,1.01-3.627,2.18c-1.087,0.409-2.147,0.953-3.165,1.676c-1.164,0.825-2.641,2.85-1.487,4.261
			c3.212,3.931,8.139,6.945,12.387,9.647c5.447,3.465,11.621,7.136,18.088,8.32c3.24,0.593,6.644,0.486,9.474-1.379
			c2.644-1.743,4.511-4.776,4.456-7.959C542.075,1833.241,533.44,1829.706,527.903,1827.63z"/>
		<path style="fill:#6FB9CF;" d="M1971.44,1656.623c-18.322-13.274-39.111-23.245-60.639-30.407
			c-10.68-3.553-21.622-6.35-32.545-9.082c-9.278-2.32-20.027-4.456-29.059-0.192c-2.467,1.164-4.799,3.893-3.289,6.634
			c5.052,9.168,16.871,10.644,26.037,13.573c13.129,4.194,25.586,9.551,37.347,16.675c17.641,10.687,33.666,23.527,47.401,38.663
			c4.125,8.469,6.01,17.726,3.726,27.401c-2.722,11.531-10.563,21.239-18.474,29.848c-9.08,9.883-19.358,18.605-30.186,26.587
			c-22.266,16.414-46.595,30.323-70.955,43.495c-15.672,8.474-31.534,16.6-47.132,25.204c-12.132,6.691-25.85,12.788-33.7,24.629
			c-0.978,1.474-1.14,3.74,0.503,4.84c11.281,7.548,29.255,2.109,41.109-1.147c17.111-4.701,34.176-9.946,51.081-15.302
			c36.05-11.422,70.816-26.609,103.03-46.266c25.901-15.805,54.104-37.704,61.16-68.474
			C2025.077,1707.439,1998.991,1676.581,1971.44,1656.623z"/>
		<path style="fill:#6FB9CF;" d="M1665.234,1895.773c-6.865-10.494-24.783-8.314-35.345-6.922
			c-7.246,0.955-14.392,2.538-21.42,4.503c-5.849,1.635-12.065,3.208-17.132,6.622c-0.647,0.436-1.12,1.014-1.49,1.628
			c-4.6,1.733-9.07,3.786-13.329,6.305c-2.239,1.324-3.965,5.047-1.403,6.914c5.223,3.807,12.282,4.888,18.606,5.282
			c8.765,0.547,17.67-0.309,26.316-1.707c14.788-2.391,32.908-6.349,44.049-16.963
			C1665.557,1900.035,1666.42,1897.585,1665.234,1895.773z"/>
		<path style="fill:#6FB9CF;" d="M1793.477,1587.383c-2.445-10.172-17.221-13.354-25.963-15.145
			c-5.997-1.23-12.093-1.935-18.205-2.306c-5.086-0.309-10.444-0.768-15.417,0.542c-0.636,0.167-1.173,0.495-1.64,0.879
			c-4.127,0.111-8.242,0.509-12.322,1.333c-2.145,0.433-4.567,2.903-3.072,5.079c3.046,4.438,8.317,7.224,13.202,9.268
			c6.771,2.832,14.05,4.593,21.279,5.855c12.364,2.158,27.805,3.992,39.624-1.345
			C1792.521,1590.839,1793.899,1589.14,1793.477,1587.383z"/>
		<path style="fill:#6FB9CF;" d="M1398.489,1928.792c-12.369-6.761-28.291-4.567-41.784-3.553
			c-18.297,1.377-36.767,0.854-55.109,1.366c-21.075,0.588-42.132,1.619-63.203,2.319c-20.485,0.68-41.035,1.13-61.432,3.231
			c-8.923,0.92-17.83,2.085-26.741,3.218c-41.517,1.408-83.094,0.376-124.568,2.963c-10.115,0.631-20.223,1.465-30.329,2.228
			c-7.856,0.592-16.581,1.398-23.012,6.34c-1.996,1.534-3.705,4.419-1.302,6.417c7.925,6.589,18.485,9.495,28.537,11.144
			c11.125,1.825,22.362,2.404,33.62,2.757c29.83,0.934,59.612,2.715,89.46,3.279c32.381,0.611,64.876,0.67,97.216-1.227
			c31.947-1.873,63.746-5.754,95.307-10.911c14.458-2.363,29.078-4.314,43.391-7.436c13.646-2.976,27.405-7.321,38.65-15.733
			C1398.777,1934.006,1401.308,1930.333,1398.489,1928.792z"/>
	</g>
	<g>
		<g>
			<g>
				<g>
					<g>
						<path style="fill:#848688;" d="M1378.1,1682.89c-6.315-9.704-12.149-19.588-17.138-29.901c0.281-0.605,0.36-1.249,0.024-1.795
							c-5.349-8.679-5.095-18.139-6.093-27.931c-0.707-6.945-2.078-14.113-8.568-17.896c-6.418-3.741-14.649-4.403-21.895-4.88
							c-8.865-0.584-17.749-0.249-26.621-0.065c-23.688,0.49-47.343-0.417-70.838,3.374c-19.46,3.14-42.574,9.133-57.934,22.228
							c-14.216,12.119-16.117,30.938-23.334,47.029c-1.12,1.088-2.194,2.194-3.354,3.268c-9.146,8.455-18.638,16.431-26.943,25.752
							c-1.24,1.391-1.625,3.761,0.543,4.464c18.972,6.151,40.471,3.718,59.417-3.526c-2.493,2.55-4.601,5.395-5.792,8.94
							c-0.458,1.362,0.182,2.565,1.484,3.034c15.191,5.466,32.063,1.607,46.823-3.413c10.248-3.485,20.542-7.688,30.411-12.547
							c-2.261,3.042-4.568,6.051-6.995,8.964c-1.147,1.376-1.88,4.157,0.577,4.747c9.711,2.334,20.798-3.625,28.747-8.544
							c6.069-3.756,13.036-8.816,17.261-15.196c2.954,4.897,6.799,8.938,11.901,12.275c1.869,1.222,5.06-0.535,5.501-2.593
							c1.186-5.531,1.103-11.188,1.703-16.764c9.174,4.767,19.858,5.714,30.088,6.471c12.382,0.915,25.901,3.498,37.99-0.482
							C1376.947,1687.284,1379.543,1685.108,1378.1,1682.89z"/>
						<path style="fill:#FDF8EA;" d="M1340.504,1682.67c-11.312-0.829-23.973-0.758-33.466-7.844
							c-1.667-1.245-4.405,0.612-4.879,2.3c-1.43,5.089-1.631,10.294-2.196,15.469c-3.935-3.494-6.835-7.665-8.557-13.031
							c-0.123-0.385-0.309-0.675-0.524-0.913c-3.572,4.083-7.352,7.995-11.592,11.351c-3.313,3.452-7.442,6.369-10.922,8.634
							c-5.157,3.357-12.248,7.504-18.932,7.953c2.815-4.048,5.499-8.164,8.002-12.384c0.241-0.134,0.481-0.268,0.724-0.4
							c0.16-0.387,0.309-0.761,0.471-1.198c0.375-1.01,0.717-2.031,1.047-3.057c0.065-0.201,0.13-0.401,0.194-0.602
							c-2.097,0.687-4.194,1.375-6.305,2.02c-11.095,4.263-21.729,9.93-32.924,13.923c-13.608,4.854-29.13,8.902-43.39,4.752
							c2.606-4.647,7.636-8.031,12.018-11.606c0.91-1.988,1.841-3.973,2.73-5.949c-7.578,3.063-15.415,5.648-23.42,7.302
							c-14.76,4.657-30.879,6.018-45.413,2.283c8.828-9.273,19.02-17.81,27.976-27.238c2.637-4.923,5.008-9.971,7.145-15.125
							c-1.672,2.051-3.355,4.089-5.131,6.043c3.887-8.795,6.445-18.491,11.657-26.586c10.987-17.064,34.698-23.51,53.403-27.484
							c23.904-5.079,48.389-4.406,72.674-4.575c15.318-0.106,32.24-2.589,47.059,2.301c9.844,3.249,10.218,12.272,11.068,21.259
							c-0.152,0.05-0.29,0.152-0.44,0.219c1.093,6.975,2.13,13.962,3.569,20.854c4.921,11.174,11.237,21.839,17.756,32.056
							C1360.306,1685.022,1350.043,1683.37,1340.504,1682.67z"/>
					</g>
				</g>
			</g>
		</g>
		<path style="fill:#93928C;" d="M2615.806,482.191c1.669-7.311-7.551-7.201-11.073-2.909
			c-35.129,42.815-72.074,84.184-111.271,123.317c3.501-4.67,7.034-9.316,10.437-14.059c21.51-29.98,42.048-61.313,57.566-94.862
			c15.907-34.391,27.862-70.418,42.864-105.192c2.667-6.184-7.435-5.152-9.658-1.134
			c-49.079,88.719-115.768,168.887-190.815,236.824c-75.469,68.318-162.197,121.052-254.804,162.715
			c-9.596,4.317-19.386,8.88-29.331,13.367c-31.268,0.448-62.545-1.209-93.542-5.727c-55.465-8.084-108.973-25.748-163.131-39.683
			c-110.45-28.419-221.508-48.306-335.907-47.614c-86.905,0.526-174.01,10.183-259.391,27.267
			c-39.989,2.986-79.58,14.864-118.105,24.558c-48.623,12.234-97.042,24.615-143.815,42.963
			c-44.884,17.607-86.277,40.901-127.067,66.399c-5.51,3.445-10.945,7.024-16.409,10.552c16.15-23.246,32.478-46.374,47.271-70.54
			c29.078-47.5,58.472-95.032,82.156-145.525c23.2-49.459,40.312-101.611,47.441-155.898c3.141-23.92,5.247-48.027,5.962-72.161
			c0.505-6.807,0.846-13.632,1.279-20.415c1.32-20.714,3.317-41.376,3.845-62.137c0.989-38.895-2.872-77.872-14.807-115.037
			c-19.67-61.256-60.193-113.676-113.66-149.223c-49.382-32.832-107.556-51.11-166.395-56.396
			c-62.449-5.609-127.503,3.089-184.688,29.445c-30.869,14.227-60.123,33.994-82.041,60.233
			c-9.691,11.6-17.616,24.531-23.854,38.275c0.246-1.852,0.497-3.699,0.739-5.46c0.26-1.897-1.917-2.471-3.325-2.205
			c-8.03,1.513-12.411,9.712-15.225,16.598c-3.128,7.655-4.94,15.831-6.408,23.946c-2.129,11.768-3.221,23.936-2.056,35.898
			c-1.42-2.257-2.698-4.676-3.734-7.469c-2.975-8.018-4.41-16.458-6.747-24.659c-0.66-2.315-3.845-1.201-4.935,0.05
			c-11.955,13.713-13.464,36.378-8.04,53.157c2.407,7.447,6.093,14.924,10.366,21.508c6.778,18.175,13.561,36.005,16.288,55.365
			c3.19,22.649,3.573,45.617,3.755,68.452c0.163,20.557-0.446,41.176,0.011,61.719c0.424,19.056,4.238,36.795,15.88,52.258
			c13.335,17.712,31.998,30.512,52.167,40.376c20.22,11.657,41.78,21.126,63.666,28.984c29.711,10.669,60.379,17.482,92.022,17.978
			c0.228,0.003,0.455-0.02,0.682-0.017c-1.195,17.746-5.278,35.371-12.789,52.326c-17.357,39.186-47.484,71.599-78.239,100.741
			c-71.225,67.488-150.414,126.523-217.116,198.799c-35.533,38.502-67.026,81.054-89.775,128.402
			c-23.979,49.914-35.831,104.726-36.983,159.993c-1.114,53.45,6.931,108.088,24.712,158.569
			c15.579,44.229,39.28,85.337,68.742,121.758c58.96,72.887,140.247,127.351,229.658,155.248
			c26.825,16.009,54.846,29.999,83.705,41.961c80.256,33.267,165.425,50.791,251.409,61.087
			c196.967,23.586,397.615,9.283,590.94-33.878c43.139-9.632,87.099-18.806,128.8-33.492c48.597-12.052,85.889-22.532,127.38-38.798
			c63.82-25.021,125.701-57.409,183.778-93.78c111.959-70.113,196.711-173.322,293.475-261.489
			c28.256-25.745,57.74-51.132,93.722-65.354c38.075-15.049,78.057-10.611,111.278,13.607c2.14,1.56,5.221-1.161,5.44-3.296
			c6.015-58.821-43.475-100.886-97.459-111.13c-20.65-3.919-41.718-3.566-62.196,0.322c19.569-7.585,39.307-14.725,59.784-19.475
			c30.645-7.107,69.289-9.463,91.542,17.257c2.763,3.318,8.387-1.06,7.699-4.629c-10.546-54.669-61.567-75.998-113.423-74.481
			c40.419-32.381,78.966-67.663,112.409-106.848c10.988-12.875,21-26.497,31.624-39.659c7.877-9.759,17.475-21.284,17-34.565
			c-0.103-2.885-2.543-3.891-5.135-3.406c-13.125,2.454-24.534,9.449-35.521,16.725c-10.302,6.821-20.743,13.241-31.311,19.515
			c46.782-43.048,89.588-89.982,124.179-143.446c21.224-32.803,38.724-67.86,51.935-104.635c2.075-5.776-5.433-6.259-8.723-3.833
			c-34.13,25.161-66.779,52.249-99.262,79.551c32.949-40.911,62.675-84.478,88.634-130.383
			C2583.568,573.472,2605.047,529.33,2615.806,482.191z"/>
		<path style="fill:#ECEAD6;" d="M2491.704,703.063c-17.52,24.343-36.414,47.705-56.267,70.24
			c-11.025,16.249-25.237,30.276-38.698,44.462c-31.074,32.748-66.502,60.821-99.678,91.337
			c-8.538,7.854-17.194,15.606-25.824,23.385c64.222-44.883,122.776-97.34,174.243-156.11
			c38.663-30.591,76.896-61.777,116.29-91.445c-39.616,98.871-111.177,177.78-190.38,247.424
			c-7.417,10.786-17.798,19.458-26.996,28.643c-13.554,13.536-27.328,26.839-41.312,39.929c-1.246,1.166-2.529,2.291-3.781,3.451
			c27.733-21.337,55.157-43.265,81.543-66.311c2.529-1.344,5.075-2.659,7.6-4.012c13.442-7.199,27.021-14.263,39.889-22.46
			c11.334-7.222,22.626-15.5,35.666-19.122c-2.232,10.785-11.913,20.265-18.455,28.388c-9.009,11.185-17.482,22.743-26.839,33.659
			c-21.411,24.978-44.946,48.085-69.629,69.81c-16.949,14.916-34.416,29.267-52.125,43.318c-0.545,0.068-1.085,0.168-1.627,0.25
			c-4.002,3.015-7.978,6.063-11.969,9.092c0.794-0.144,1.564-0.355,2.363-0.482c-9.454,7.328-19.04,14.481-28.688,21.547
			c-2.555,1.955-5.215,3.766-7.807,5.671c-4.115,2.964-8.245,5.904-12.398,8.812c-2.118,1.454-4.137,3.045-6.28,4.464
			c-0.143,0.094-0.28,0.097-0.423,0.17c-10.738,7.405-21.559,14.686-32.562,21.68c-6.092,3.871-12.249,7.626-18.41,11.373
			c10.823-4.088,21.649-8.173,32.445-12.328c3.199-1.232,6.327-2.624,9.499-3.917c18.377-12.038,36.417-24.59,54.045-37.667
			c9.554-7.087,19.03-14.368,28.451-21.747c46.206-2.882,92.723,11.752,110.675,54.073c-22.367-15.303-51.389-15.008-78.347-9.666
			c-33.036,6.546-64.165,20.228-93.88,35.779c-0.677,0.238-1.368,0.428-2.043,0.674c-17.661,6.445-33.203,15.374-47.459,26.21
			c19.603-10.922,41.276-18.034,63.939-21.595c23.134-5.641,47.202-6.754,70.677-1.85c45.543,9.513,93.898,45.329,94.687,95.121
			c-24.656-15.411-52.061-24.156-81.583-20.603c-30.071,3.618-57.522,17.672-82.129,34.739
			c-27.136,18.821-51.24,41.972-75.115,64.68c-24.25,23.063-47.895,46.748-71.639,70.327
			c-47.72,47.386-95.99,94.723-149.905,135.129c-56.176,42.1-119.423,76.714-183.057,106.132
			c-38.646,17.867-78.496,32.728-119.39,43.413c0.618-0.262,1.229-0.542,1.846-0.805c-9.639,2.757-19.348,5.284-29.048,7.703
			c-30.461,7.596-60.253,18.039-91.212,23.34c-10.037,2.738-20.101,5.368-30.204,7.83c-94.192,22.958-190.437,38.291-287.074,45.952
			c-96.83,7.677-194.344,7.435-291.053-1.856c-86.643-8.324-173.105-23.097-255.149-52.892
			c-26.877-9.761-53.145-21.253-78.666-34.201c-1.473-0.55-2.965-1.042-4.43-1.615c-30.975-12.123-59.683-31.216-86.403-50.81
			c-14.432-10.584-28.742-21.351-43.519-31.453c-1.699-1.161-3.399-2.335-5.101-3.501c22.186,23.496,48.363,44.248,74.81,61.798
			c0.849,0.563,1.736,1.064,2.588,1.623c-68.93-27.174-131.858-69.188-181.923-124.157c-31.724-34.832-58.125-74.64-76.809-117.937
			c-20.87-48.364-31.718-101.284-33.877-153.824c-2.28-55.516,5.637-111.696,26.448-163.385
			c20.027-49.742,50.928-94.703,86.177-134.835c64.876-73.866,143.624-134.091,215.869-200.342
			c47.646-43.693,101.031-101.354,104.898-167.875c55.843-0.773,111.15-18.688,157.505-49.642
			c8.194-5.472,16.144-11.419,23.814-17.727c-26.676,17.491-55.307,31.999-85.461,42.417c-3.089,1.175-6.106,2.482-9.251,3.552
			c-22.157,7.54-45.224,12.26-68.549,14.104c-8.312,0.927-16.718,1.391-24.964,0.749c0.001,0.051,0.002,0.103,0.001,0.155
			c-12.663-0.251-25.213-1.454-37.634-3.52c-2.361-0.331-4.714-0.692-7.053-1.091c-16.17-2.753-31.626-7.078-46.87-13.135
			c-15.604-6.2-31.582-12.25-46.638-19.693c-7.047-3.484-13.884-7.511-20.609-11.719c-14.819-7.944-28.51-17.612-39.417-29.876
			c-6.186-6.956-11.698-14.775-14.967-23.542c-3.41-9.144-4.72-18.877-5.145-28.582c-0.862-19.709-0.099-39.601-0.309-59.335
			c-0.253-23.893-0.546-47.871-3.86-71.575c-2.338-16.715-6.862-32.22-14.436-46.773c1.717,1.562,3.607,2.881,5.665,3.875
			c-2.45-3.88-4.545-7.976-6.479-12.156c-0.951-1.398-1.838-2.81-2.639-4.174c-3.721-6.33-6.975-13.237-9.274-20.224
			c-4.287-13.029-4.185-31.248,3.03-43.895c2.529,10.629,5.425,25.427,13.023,33.444c2.349,1.994,4.576,3.915,7.283,5.243
			c0.241,0.119,0.487,0.228,0.734,0.335c0.069,0.028,0.15,0.06,0.25,0.094c0.131-2.463,0.133-4.935,0.361-7.391
			c-0.187-0.146-0.399-0.276-0.582-0.425c-0.033-0.265-0.065-0.567-0.097-0.822c-1.759-13.667-0.539-27.429,1.982-40.921
			c1.212-6.482,2.693-12.937,4.763-19.203c1.254-3.793,3.246-10.611,6.817-14.195c-0.807,6.603-1.421,13.257-1.39,19.902
			c-1.487,4.605-2.572,9.278-3.361,13.933c1.199-2.278,2.505-4.487,3.965-6.604c2.292-4.48,4.782-8.865,7.547-13.065
			c5.613-14.776,12.764-28.859,22.156-41.636c19.676-26.765,47.756-47.166,77.257-61.881c54.75-27.308,117.7-36.922,178.442-33.338
			c56.79,3.352,113.471,19.099,162.375,48.5c52.07,31.306,93.723,78.112,116.636,134.591
			c13.761,33.922,20.626,70.327,21.792,106.851c0.458,14.324,0.151,28.667-0.484,42.989c-0.648-6.548-1.303-13.095-2.252-19.614
			c-1.287-8.851-3.096-17.51-5.156-26.209c-2.101-8.879-5.193-17.376-7.42-26.211c-0.159-0.63-1.261-0.04-1.118,0.528
			c3.996,15.853,5.13,32.703,7.147,48.931c1.967,15.831,3.113,31.798,3.609,47.741c0.978,31.438-0.808,62.971-4.232,94.22
			c-6.188,56.463-21.109,110.531-44.492,162.298c-22.644,50.13-51.264,97.258-79.925,144.107
			c-13.509,22.081-27.33,43.827-42.159,65.052c-6.149,8.8-12.246,17.638-18.357,26.466c-27.323,18.204-53.833,37.662-78.566,59.247
			c-36.008,31.427-68.464,68.576-89.657,111.676c-0.922,1.877,1.63,1.955,2.451,0.639c46.318-74.29,115.053-128.382,187.951-174.979
			c38.798-24.8,78.189-48.318,120.7-66.252c45.319-19.12,92.408-33.303,139.705-46.589c29.268-5.714,58.438-11.818,87.95-16.351
			c94.746-22.524,192.294-35.846,289.496-38.101c111.622-2.59,220.931,13.275,329.045,40.285
			c59.269,14.807,117.791,34.81,178.247,44.247c23.07,3.601,46.23,5.626,69.423,6.484c0.528-0.268,1.135-0.445,1.897-0.402
			c11.144,0.632,22.309,0.624,33.465,0.854c19.717-0.289,39.44-1.359,59.14-3.136c-29.415,24.4-60.177,47.205-92.755,67.214
			c-25.288,15.531-51.557,28.834-78.337,41.219c-5.061,1.85-10.073,3.829-15.071,5.844c6.732-1.117,13.504-2.068,20.091-3.415
			c24.219-4.956,47.853-12.787,71.578-19.627c0.717-0.206,1.36-0.184,1.954-0.059c20.177-7.82,40.412-17.143,61.502-20.147
			c-5.019,13.548-16.449,24.55-25.092,35.81c-10.376,13.518-21.47,26.455-33.241,38.778c-24.524,25.675-51.695,48.836-79.466,70.909
			c-0.299,0.238-0.607,0.466-0.907,0.704c-5.339,2.361-10.668,4.655-16.024,6.623c-17.518,6.437-34.588,13.762-51.622,21.221
			c28.035-7.892,55.749-16.931,83.82-24.707c0.617-0.171,1.219-0.144,1.797-0.034c6.313-2.638,12.739-5.111,19.391-6.55
			c-11.789,24.182-30.859,44.544-50.097,62.96c-21.638,20.715-44.833,39.866-68.869,57.725
			c-32.997,24.516-67.79,46.322-103.42,66.716c-11.905,8.735-23.68,17.629-34.943,27.118
			c51.937-26.684,102.484-56.276,149.473-90.999c24.817-18.339,48.985-38.011,71.058-59.608
			c20.878-20.426,41.064-43.388,51.918-70.872c1.096-2.775-1.163-5.919-4.189-5.631c-5.777,0.549-11.419,1.801-16.974,3.474
			c18.723-15.863,36.801-32.416,53.831-49.875c13.986-14.339,26.838-29.565,39.057-45.423c10.59-13.743,24.248-26.996,27.704-44.65
			c0.526-2.683-0.69-5.688-4.011-5.392c-31.179,2.778-59.335,19.432-88.683,29.001c-0.047,0.016-0.094,0.03-0.141,0.046
			c45.256-25.613,87.544-57.154,125.819-90.754c2.199-1.931,4.242-8.209-0.937-7.617c-17.645,2.017-35.37,3.404-53.118,4.207
			c42.547-18.503,84.456-38.303,124.409-62.026c89.896-53.377,169.912-121.95,237.152-201.979
			c25.583-30.45,49.058-62.522,70.633-95.857c-6.823,17.291-13.755,34.535-21.683,51.353c-15.291,32.44-34.895,62.829-55.673,91.999
			c-17.519,24.595-36.417,48.169-56.37,70.821c-18.715,17.246-37.557,34.366-56.684,51.115
			c-5.941,5.201-11.861,10.421-17.837,15.572c-5.222,5.415-10.541,10.729-15.96,15.936c2.078-1.23,4.161-2.454,6.212-3.719
			c12.032-7.42,24.151-14.751,36.095-22.308c5.348-3.384,10.582-6.933,15.795-10.511c11.992-11.515,23.696-23.328,34.941-35.576
			c10.857-9.705,21.678-19.451,32.334-29.362c43.455-40.418,83.789-83.923,122.099-129.195
			c-10.094,33.204-24.7,64.822-41.345,95.335C2536.064,636.347,2515.085,670.576,2491.704,703.063z"/>
		<path style="fill:#C8C8B8;" d="M2344.395,960.998c9.198-9.185,19.58-17.858,26.996-28.643
			c79.203-69.645,150.764-148.553,190.38-247.423c-39.394,29.667-77.627,60.853-116.29,91.443
			c-51.467,58.771-110.022,111.228-174.243,156.11c8.629-7.778,17.286-15.53,25.824-23.385
			c33.175-30.517,68.603-58.589,99.678-91.336c13.461-14.186,27.673-28.214,38.697-44.462
			c19.853-22.534,38.746-45.897,56.267-70.239c23.381-32.486,44.36-66.716,63.523-101.845c16.645-30.513,31.25-62.131,41.344-95.335
			c-38.31,45.273-78.645,88.776-122.099,129.195c-10.657,9.91-21.478,19.658-32.334,29.362
			c-11.245,12.248-22.949,24.062-34.941,35.576c-5.214,3.578-10.448,7.127-15.796,10.511c-11.944,7.558-24.063,14.888-36.095,22.308
			c-2.051,1.264-4.134,2.489-6.212,3.719c5.419-5.208,10.738-10.521,15.96-15.937c5.976-5.151,11.896-10.37,17.836-15.572
			c19.128-16.749,37.971-33.868,56.685-51.114c19.953-22.652,38.851-46.227,56.369-70.822c20.778-29.17,40.383-59.559,55.673-91.998
			c7.927-16.818,14.859-34.062,21.683-51.354c-21.575,33.334-45.049,65.407-70.633,95.856
			c-67.239,80.029-147.256,148.602-237.152,201.98c-39.953,23.723-81.861,43.523-124.409,62.026
			c17.748-0.804,35.474-2.19,53.118-4.207c5.179-0.593,3.137,5.686,0.938,7.617c-38.276,33.6-80.564,65.141-125.82,90.754
			l0.141-0.046c29.347-9.57,57.503-26.224,88.683-29.001c3.321-0.296,4.537,2.71,4.011,5.393
			c-3.456,17.653-17.114,30.906-27.704,44.65c-12.219,15.857-25.071,31.084-39.056,45.423
			c-17.031,17.459-35.108,34.013-53.831,49.875c5.555-1.671,11.198-2.925,16.974-3.474c3.027-0.288,5.285,2.857,4.189,5.632
			c-10.854,27.484-31.04,50.446-51.917,70.872c-22.074,21.597-46.242,41.269-71.059,59.608
			c-46.989,34.722-97.536,64.315-149.473,90.999c11.263-9.488,23.038-18.382,34.943-27.118c35.63-20.394,70.423-42.2,103.419-66.716
			c24.038-17.859,47.231-37.01,68.87-57.724c19.238-18.417,38.308-38.779,50.097-62.961c-6.652,1.438-13.078,3.912-19.391,6.551
			c-0.578-0.111-1.179-0.137-1.797,0.033c-28.072,7.776-55.785,16.815-83.82,24.707c17.034-7.459,34.104-14.784,51.621-21.221
			c5.357-1.969,10.685-4.263,16.024-6.625c0.3-0.238,0.607-0.464,0.907-0.703c27.771-22.072,54.942-45.234,79.466-70.909
			c11.771-12.323,22.865-25.261,33.241-38.778c8.643-11.26,20.073-22.262,25.092-35.809c-21.09,3.003-41.325,12.326-61.502,20.146
			c-0.595-0.126-1.237-0.148-1.954,0.06c-23.725,6.839-47.36,14.671-71.578,19.626c-6.587,1.347-13.36,2.297-20.092,3.414
			c4.997-2.014,10.01-3.993,15.071-5.844c26.78-12.385,53.05-25.688,78.337-41.218c32.578-20.009,63.34-42.815,92.755-67.215
			c-19.699,1.777-39.423,2.847-59.139,3.137c-11.157-0.231-22.322-0.223-33.465-0.854c-0.763-0.043-1.37,0.133-1.898,0.402
			c-23.192-0.859-46.352-2.884-69.423-6.485c-60.455-9.436-118.977-29.439-178.247-44.247c-26.23-6.553-52.532-12.434-78.92-17.57
			c-42.747,1.631-85.455,5.243-128.246,5.05c18.738,6.966,38.265,11.817,57.816,15.808c45.806,9.349,92.436,14.05,138.137,23.962
			c41.934,9.095,84.697,22.839,117.506,51.627c1.196,1.049,0.967,3.47-0.536,4.157c-25.096,11.476-52.06,16.98-78.908,22.655
			c-16.858,3.562-33.625,7.343-50.566,10.509c-17.734,3.313-35.484,6.566-53.088,10.526c-17.638,3.968-35.238,8.552-52.128,15.059
			c-11.819,4.552-23.75,10.183-33.65,18.26c16.131-0.06,32.26-1.795,48.23-3.847c37.648-4.838,75.143-11.73,113.133-13.341
			c32.08-1.359,68.278,0.387,95.267,19.911c1.203,0.871,1.666,2.263,0.95,3.621c-10.855,20.584-26.157,38.371-44.358,52.813
			c-32.333,25.654-71.258,40.925-109.236,56.08c-35.685,14.239-72.783,28.549-103.11,52.747c8.084,2.569,16.453,4.059,24.936,4.624
			c38.586,2.573,76.398-8.995,114.737-11.008c2.387-0.124,3.357,2.936,1.872,4.518c-17.727,18.883-38.948,34-61.158,47.15
			c-19.186,11.361-39.066,21.701-58.944,31.791c-18.857,9.571-37.161,20.191-55.773,30.221
			c-19.73,10.632-39.802,20.808-60.795,28.732c-19.249,7.267-39.567,12.666-60.263,12.754c-2.19,0.009-3.052-2.214-2.285-3.983
			c12.542-28.942,34.807-52.981,46.712-82.112c-9.128,10.898-18.368,21.702-27.892,32.255
			c-44.463,49.263-94.477,94.683-153.362,126.074c-2.72,1.45-5.179-1.922-3.207-4.158c7.84-8.889,15.625-17.827,23.296-26.861
			c15.484-18.236,30.474-36.922,44.543-56.266c-25.34,18.465-51.254,36.144-77.955,52.589
			c-62.672,38.599-130.545,71.354-202.947,86.593c-35.252,7.421-71.505,10.526-107.466,7.74
			c-30.759-2.383-60.889-9.161-89.745-19.814c16.03,12.177,32.493,23.794,50.509,32.883c2.883,1.454,0.7,5.31-2.039,4.837
			c-27.77-4.802-55.626-9.168-83.219-14.934c-46.376-9.694-94.55-23.174-132.526-52.753c-18.144-14.133-33.167-32.056-43.181-52.809
			c-9.707-20.117-14.565-42.011-16.272-64.17c-9.131,31.483-12.26,66.408-0.216,97.107c1.032,2.629-2.649,4.21-4.423,2.575
			c-16.065-14.809-28.937-32.948-35.598-53.887c-10.926-34.346-3.671-71.175,11.147-103.169
			c8.276-17.869,18.938-34.664,31.198-50.212c-16.005,13.469-32.059,26.883-47.497,41.004c-2.202,2.014-5.677-0.551-4.157-3.208
			c12.823-22.413,26.604-44.276,41.189-65.587c12.654-26.176,28.654-50.754,46.179-73.905
			c19.453-25.698,40.442-50.155,63.697-72.488c22.942-22.032,47.438-42.502,73.216-61.139c2.761-1.996,5.547-3.96,8.341-5.915
			c-18.921,10.719-37.454,22.158-55.84,33.91c-72.898,46.597-141.633,100.689-187.951,174.981c-0.821,1.317-3.374,1.238-2.451-0.64
			c21.193-43.099,53.65-80.248,89.657-111.674c24.732-21.587,51.242-41.044,78.566-59.248c6.11-8.828,12.209-17.666,18.357-26.466
			c14.829-21.225,28.65-42.971,42.159-65.053c28.661-46.848,57.281-93.976,79.925-144.106
			c23.384-51.768,38.305-105.836,44.492-162.299c3.425-31.248,5.211-62.782,4.232-94.219c-0.495-15.945-1.641-31.912-3.609-47.742
			c-2.016-16.227-3.151-33.077-7.147-48.93c-0.143-0.567,0.958-1.159,1.118-0.529c2.227,8.837,5.318,17.333,7.42,26.212
			c2.059,8.699,3.868,17.358,5.156,26.209c0.948,6.519,1.605,13.066,2.251,19.614c0.636-14.322,0.943-28.665,0.485-42.989
			c-1.166-36.524-8.03-72.929-21.792-106.85c-22.913-56.479-64.566-103.285-116.636-134.592
			C856.272,56.651,799.59,40.903,742.8,37.552c-60.743-3.585-123.692,6.03-178.442,33.338
			c-29.501,14.715-57.581,35.115-77.256,61.881c-9.393,12.777-16.543,26.859-22.157,41.635c-2.764,4.2-5.255,8.586-7.546,13.065
			c-1.46,2.117-2.766,4.327-3.965,6.605c0.788-4.656,1.874-9.329,3.362-13.933c-0.033-6.647,0.582-13.299,1.389-19.903
			c-3.571,3.584-5.563,10.402-6.817,14.195c-2.07,6.265-3.551,12.721-4.762,19.202c-2.522,13.492-3.742,27.255-1.982,40.922
			c0.032,0.256,0.065,0.556,0.096,0.822c0.184,0.148,0.396,0.279,0.583,0.425c-0.229,2.456-0.231,4.928-0.362,7.391
			c-0.101-0.033-0.181-0.066-0.251-0.093c-0.246-0.109-0.492-0.217-0.733-0.336c-2.708-1.327-4.934-3.249-7.283-5.243
			c-7.598-8.017-10.494-22.814-13.022-33.444c-7.216,12.648-7.317,30.867-3.031,43.895c2.299,6.987,5.553,13.895,9.274,20.223
			c0.801,1.364,1.688,2.777,2.639,4.176c1.935,4.18,4.029,8.276,6.48,12.155c-2.06-0.995-3.949-2.313-5.665-3.875
			c7.574,14.554,12.097,30.058,14.436,46.773c3.314,23.703,3.606,47.681,3.86,71.575c0.21,19.735-0.553,39.627,0.309,59.334
			c0.424,9.706,1.734,19.439,5.145,28.583c3.269,8.767,8.781,16.586,14.968,23.542c10.906,12.264,24.597,21.932,39.416,29.875
			c6.725,4.208,13.562,8.235,20.609,11.719c15.057,7.444,31.034,13.494,46.639,19.694c15.242,6.057,30.699,10.381,46.869,13.135
			c2.339,0.398,4.692,0.76,7.053,1.091c12.42,2.065,24.97,3.268,37.633,3.519c0.001-0.052,0-0.102-0.001-0.154
			c8.246,0.642,16.652,0.178,24.964-0.749c23.325-1.843,46.391-6.564,68.549-14.104c3.144-1.07,6.161-2.376,9.25-3.551
			c30.155-10.418,58.786-24.926,85.462-42.417c-7.67,6.307-15.62,12.254-23.814,17.727
			c-46.356,30.954-101.662,48.869-157.505,49.642c-3.868,66.521-57.253,124.182-104.898,167.876
			c-72.245,66.249-150.993,126.476-215.87,200.341c-35.248,40.132-66.149,85.093-86.177,134.836
			c-20.81,51.687-28.728,107.869-26.447,163.384c2.159,52.539,13.008,105.46,33.877,153.824
			c18.684,43.298,45.085,83.104,76.809,117.937c50.065,54.968,112.993,96.984,181.923,124.156c-0.852-0.558-1.74-1.059-2.588-1.623
			c-26.448-17.55-52.625-38.302-74.81-61.799c1.702,1.167,3.402,2.341,5.101,3.502c14.777,10.102,29.087,20.87,43.519,31.453
			c26.72,19.595,55.427,38.688,86.403,50.81c1.465,0.574,2.957,1.066,4.43,1.615c25.521,12.948,51.789,24.441,78.666,34.2
			c82.044,29.796,168.505,44.568,255.148,52.893c96.71,9.29,194.224,9.532,291.054,1.856
			c96.636-7.663,192.882-22.996,287.074-45.953c10.103-2.463,20.168-5.091,30.205-7.83c30.96-5.302,60.751-15.744,91.213-23.34
			c9.7-2.418,19.409-4.946,29.047-7.703c-0.618,0.263-1.227,0.543-1.845,0.804c40.893-10.684,80.743-25.545,119.389-43.411
			c63.634-29.419,126.881-64.032,183.057-106.134c53.914-40.405,102.184-87.742,149.904-135.128
			c23.745-23.579,47.391-47.264,71.64-70.327c23.875-22.707,47.979-45.859,75.115-64.679c24.607-17.068,52.058-31.122,82.129-34.74
			c29.522-3.552,56.927,5.193,81.583,20.604c-0.788-49.793-49.145-85.608-94.687-95.121c-23.476-4.904-47.543-3.792-70.677,1.851
			c-22.663,3.56-44.336,10.672-63.939,21.595c14.256-10.835,29.799-19.765,47.459-26.21c0.675-0.247,1.366-0.436,2.043-0.674
			c29.715-15.552,60.845-29.234,93.88-35.779c26.958-5.343,55.98-5.636,78.348,9.665c-17.952-42.32-64.469-56.954-110.676-54.072
			c-9.421,7.379-18.896,14.661-28.45,21.747c-17.629,13.076-35.669,25.628-54.047,37.667c-3.171,1.292-6.299,2.685-9.498,3.916
			c-10.796,4.156-21.622,8.24-32.445,12.328c6.161-3.748,12.318-7.502,18.41-11.372c11.004-6.994,21.824-14.275,32.562-21.681
			c0.143-0.074,0.281-0.076,0.423-0.17c2.143-1.418,4.162-3.01,6.279-4.464c4.154-2.908,8.284-5.849,12.399-8.811
			c2.593-1.906,5.252-3.716,7.808-5.672c9.648-7.065,19.234-14.219,28.688-21.547c-0.8,0.127-1.569,0.339-2.363,0.483
			c3.992-3.03,7.968-6.077,11.969-9.093c0.543-0.081,1.082-0.181,1.627-0.249c17.709-14.052,35.176-28.402,52.125-43.318
			c24.684-21.725,48.219-44.833,69.629-69.81c9.357-10.917,17.831-22.476,26.84-33.66c6.542-8.122,16.222-17.603,18.454-28.387
			c-13.04,3.621-24.331,11.899-35.666,19.121c-12.868,8.198-26.446,15.262-39.889,22.461c-2.525,1.352-5.071,2.667-7.6,4.011
			c-26.387,23.048-53.81,44.975-81.543,66.312c1.252-1.16,2.535-2.285,3.781-3.452
			C2317.066,987.837,2330.841,974.533,2344.395,960.998z"/>
		<path style="fill:#C8C8B8;" d="M2376.856,1231.224c-15.098-9.676-32.121-15.814-49.8-18.647
			c-37.421-5.993-76.088,2.439-111.112,15.556c-45.009,16.855-84.754,43.238-120.649,74.967
			c-19.041,16.832-37.02,34.814-54.698,53.057c-7.095,7.322-14.415,14.441-21.196,22.059c-6.891,7.741-13.426,15.796-19.896,23.89
			c-13.773,17.231-27.204,34.785-42.12,51.059c-13.13,14.328-27.743,28.484-45.404,37.071c-1.597,0.775-4.232-0.116-3.982-2.285
			c2.6-22.642,9.364-44.478,17.221-65.896c-2.793,4.866-5.562,9.744-8.425,14.568c-17.433,29.375-36.326,58.179-58.955,83.852
			c-20.662,23.445-45.134,44.88-74.702,56.086c-2.388,0.905-3.834-2.033-2.989-3.888c4.958-10.889,10.08-21.702,15.12-32.542
			c-38.576,43.133-87.028,81.303-143.855,94.388c-2.94,0.676-4.604-3.236-2.039-4.838c14.368-8.974,26.746-20.295,37.95-32.836
			c-50.321,26.772-103.283,48.395-157.662,65.443c-105.722,33.146-216.362,49.774-326.878,54.952
			c-56.803,2.661-113.877,2.324-170.633-1.318c-29.275-1.879-58.587-5.237-87.14-12.14c-20.625-4.987-39.121-15.195-58.473-23.368
			c12.223,7.809,24.497,15.615,33.657,26.958c1.674,2.075,0.124,4.937-2.575,4.424c-30.85-5.865-61.66-12.017-92.169-19.483
			c-51.01-12.482-101.552-28.722-147.905-53.751c-43.581-23.533-81.898-55.045-113.016-93.448
			c4.907,22.894,13.376,45.754,10.445,69.289c-0.248,1.99-2.055,3.298-3.983,2.285c-45.265-23.79-81.817-62.149-112.762-102.198
			c-29.076-37.633-54.064-78.464-75.484-120.895c-23.906-47.358-43.177-96.839-55.177-148.584
			c-17.534-75.611-20.065-153.499-11.025-230.204c-18.379,26.336-34.318,54.359-46.306,84.133
			c-20.81,51.687-28.728,107.869-26.447,163.384c2.159,52.539,13.008,105.46,33.877,153.824
			c18.684,43.298,45.085,83.104,76.809,117.937c50.065,54.968,112.993,96.984,181.923,124.156c-0.852-0.558-1.74-1.059-2.588-1.623
			c-26.448-17.55-52.625-38.302-74.81-61.799c1.702,1.167,3.402,2.341,5.101,3.502c14.777,10.102,29.087,20.87,43.519,31.453
			c26.72,19.595,55.427,38.688,86.403,50.81c1.465,0.574,2.957,1.066,4.43,1.615c25.521,12.948,51.789,24.441,78.666,34.2
			c82.044,29.796,168.505,44.568,255.148,52.893c96.71,9.29,194.224,9.532,291.054,1.856
			c96.636-7.663,192.882-22.996,287.074-45.953c10.103-2.463,20.168-5.091,30.205-7.83c30.96-5.302,60.751-15.744,91.213-23.34
			c9.7-2.418,19.409-4.946,29.047-7.703c-0.618,0.263-1.227,0.543-1.845,0.804c40.893-10.684,80.743-25.545,119.389-43.411
			c63.634-29.419,126.881-64.032,183.057-106.134c53.914-40.405,102.184-87.742,149.904-135.128
			c23.745-23.579,47.391-47.264,71.64-70.327c23.875-22.707,47.979-45.859,75.115-64.679c24.607-17.068,52.058-31.122,82.129-34.74
			c15.208-1.83,29.84-0.351,43.837,3.576C2381.737,1234.523,2379.339,1232.816,2376.856,1231.224z"/>
		<path style="fill:#C8C8B8;" d="M1880.396,1199.997c11.366-11.883,22.023-24.587,31.905-37.894
			c-16.273,11.068-32.885,21.625-49.789,31.708c-12.686,11.68-25.519,23.204-38.472,34.582
			c-28.695,25.207-57.771,49.975-86.396,75.261c9.221-1.049,18.352-2.756,27.366-5.006c41.111-10.26,79.11-30.123,116.198-50.085
			c2.71-1.459,5.193,1.932,3.207,4.156c-10.519,11.788-21.986,22.67-34.179,32.703c-28.67,39.728-75.767,64.908-118.835,85.611
			c-44.894,21.581-91.279,40.545-137.105,60.052c-60.324,25.68-121.864,49.22-185.3,66.034
			c-62.46,16.556-126.307,28.126-190.547,35.017c-32.762,3.514-65.121,3.65-97.935,0.556c-28.881-2.722-57.562-7.143-86.323-10.873
			c15.374,9.464,32.886,15.032,48.807,23.561c1.935,1.037,1.603,4.399-0.632,4.838c-24.408,4.795-49.256,6.944-74.125,6.014
			c-82.772-3.098-159.056-39.164-228.097-82.558c7.769,16.647,18.66,32.626,32.917,44.02c1.773,1.418,0.306,4.69-1.872,4.518
			c-21.786-1.715-42.741-8.386-61.93-18.77c-35.362-19.134-64.289-49.584-84.945-83.807c-14.01-23.213-24.706-49.02-29.831-75.797
			c0.766,14.646,2.822,29.233,6.313,43.537c13.918,57.036,47.949,107.652,91.313,146.622
			c40.526,36.418,89.921,63.515,142.861,76.747c-11.293-8.386-22.35-17.098-30.94-28.373c-1.8-2.364,1.537-4.557,3.621-3.621
			c25.13,11.282,51,21.036,77.836,27.408c14.982,3.558,30.154,6.019,45.415,7.852c33.292,2.995,66.814,3.528,100.21,2.534
			c49.205-1.463,98.239-6.09,147.224-10.731c23.929-2.268,47.876-4.32,71.698-7.573c22.848-3.12,45.582-7.07,68.158-11.768
			c43.915-9.138,87.186-21.15,129.832-35.025c39.252-12.768,77.965-27.116,116.446-42.031c38.32-18.085,75.94-37.693,112.214-59.604
			c40.172-24.265,78.794-51.26,114.363-81.92c34.927-30.107,66.979-63.783,93.751-101.391c25.417-35.707,45.798-74.836,59.88-116.34
			c-7.575,4.967-15.091,10.022-22.551,15.159c-33.59,23.127-66.957,47.003-104.593,63.225c-2.508,1.08-5.724-2.069-3.207-4.158
			C1863.495,1216.783,1872.165,1208.601,1880.396,1199.997z"/>
		<path style="fill:#C8C8B8;" d="M1912.012,1145.939c-6.11,6.284-12.334,12.453-18.594,18.584
			c11.282-7.529,22.446-15.238,33.373-23.307c6.606-10.218,12.776-20.709,18.347-31.478
			C1934.395,1122.077,1923.418,1134.21,1912.012,1145.939z"/>
		<path style="fill:#53402E;" d="M2344.395,960.998c9.198-9.185,19.58-17.858,26.996-28.643
			c79.203-69.645,150.764-148.553,190.38-247.423c-39.394,29.667-77.627,60.853-116.29,91.443
			c-51.467,58.771-110.022,111.228-174.243,156.11c8.629-7.778,17.286-15.53,25.824-23.385
			c33.175-30.517,68.603-58.589,99.678-91.336c13.461-14.186,27.673-28.214,38.697-44.462
			c19.853-22.534,38.746-45.897,56.267-70.239c23.381-32.486,44.36-66.716,63.523-101.845c16.645-30.513,31.25-62.131,41.344-95.335
			c-38.31,45.273-78.645,88.776-122.099,129.195c-10.657,9.91-21.478,19.658-32.334,29.362
			c-11.245,12.248-22.949,24.062-34.941,35.576c-5.214,3.578-10.448,7.127-15.796,10.511c-11.944,7.558-24.063,14.888-36.095,22.308
			c-2.051,1.264-4.134,2.489-6.212,3.719c5.419-5.208,10.738-10.521,15.96-15.937c5.976-5.151,11.896-10.37,17.836-15.572
			c19.128-16.749,37.971-33.868,56.685-51.114c19.953-22.652,38.851-46.227,56.369-70.822c20.778-29.17,40.383-59.559,55.673-91.998
			c7.927-16.818,14.859-34.062,21.683-51.354c-21.575,33.334-45.049,65.407-70.633,95.856
			c-62.648,74.565-136.399,139.17-218.887,190.82c-17.085,26.414-38.688,49.566-56.09,75.748
			c24.966-10.39,46.376-28.1,72.155-36.875c1.521-0.519,3.515,0.885,3.351,2.552c-1.777,18.011-8.193,35.133-16.527,51.092
			c-17.543,33.596-43.02,62.951-69.381,89.895c-22.4,22.892-46.323,44.221-70.795,64.869c18.098-4.596,35.425-12.18,52.059-20.527
			c20.033-10.055,39.299-21.534,58.51-33.06c1.883-1.13,4.691,0.773,3.887,2.989c-5.19,14.325-12.851,27.452-22.154,39.484
			c-16.872,21.823-38.165,39.669-59.132,57.385c-18.909,15.975-38.392,32.073-53.76,51.64c20.1-2.1,37.974-13.892,54.674-24.538
			c18.247-11.632,37.113-23.996,59.085-26.625c1.321-0.158,2.78,1.338,2.646,2.647c-2.109,20.797-8.584,40.695-18.11,59.256
			c-17.769,34.617-44.503,63.858-71.048,91.907c-23.762,25.108-48.786,49.684-68.979,77.877
			c38.625-20.583,78.506-41.888,122.003-48.935c2.288-0.37,4.855,2.561,2.576,4.423c-22.756,18.597-46.693,36.724-64.983,59.898
			c11.87-6.994,23.54-14.332,35.938-20.391c15.135-7.395,31.866-13.56,48.953-11.146c2.509,0.355,2.21,3.684,0.632,4.838
			c-18.802,13.727-35.878,29.783-51.72,46.804c-32.007,34.39-59.617,73.401-80.766,115.377c-4.163,8.263-8.127,16.766-11.791,25.442
			c8.821-8.645,17.607-17.316,26.357-26.006c23.745-23.579,47.391-47.264,71.64-70.327c23.875-22.707,47.979-45.859,75.115-64.679
			c24.607-17.068,52.058-31.122,82.129-34.74c29.522-3.552,56.927,5.193,81.583,20.604c-0.788-49.793-49.145-85.608-94.687-95.121
			c-23.476-4.904-47.543-3.792-70.677,1.851c-22.663,3.56-44.336,10.672-63.939,21.595c14.256-10.835,29.799-19.765,47.459-26.21
			c0.675-0.247,1.366-0.436,2.043-0.674c29.715-15.552,60.845-29.234,93.88-35.779c26.958-5.343,55.98-5.636,78.348,9.665
			c-17.952-42.32-64.469-56.954-110.676-54.072c-9.421,7.379-18.896,14.661-28.45,21.747
			c-17.629,13.076-35.669,25.628-54.047,37.667c-3.171,1.292-6.299,2.685-9.498,3.916c-10.796,4.156-21.622,8.24-32.445,12.328
			c6.161-3.748,12.318-7.502,18.41-11.372c11.004-6.994,21.824-14.275,32.562-21.681c0.143-0.074,0.281-0.076,0.423-0.17
			c2.143-1.418,4.162-3.01,6.279-4.464c4.154-2.908,8.284-5.849,12.399-8.811c2.593-1.906,5.252-3.716,7.808-5.672
			c9.648-7.065,19.234-14.219,28.688-21.547c-0.8,0.127-1.569,0.339-2.363,0.483c3.992-3.03,7.968-6.077,11.969-9.093
			c0.543-0.081,1.082-0.181,1.627-0.249c17.709-14.052,35.176-28.402,52.125-43.318c24.684-21.725,48.219-44.833,69.629-69.81
			c9.357-10.917,17.831-22.476,26.84-33.66c6.542-8.122,16.222-17.603,18.454-28.387c-13.04,3.621-24.331,11.899-35.666,19.121
			c-12.868,8.198-26.446,15.262-39.889,22.461c-2.525,1.352-5.071,2.667-7.6,4.011c-26.387,23.048-53.81,44.975-81.543,66.312
			c1.252-1.16,2.535-2.285,3.781-3.452C2317.066,987.837,2330.841,974.533,2344.395,960.998z"/>
		<path style="fill:#6B533E;" d="M459.007,1594.82c1.702,1.167,3.402,2.341,5.101,3.502c14.777,10.102,29.087,20.87,43.519,31.453
			c9.251,6.784,18.757,13.488,28.498,19.883c-2.438-3.104-4.867-6.215-7.128-9.439c-9.915-14.145-18.928-30.504-20.198-48.062
			c-0.135-1.883,1.792-2.799,3.35-2.552c10.093,1.599,18.98,6.35,26.6,12.769c-11.339-20.902-22.67-42.696-22.925-66.42
			c-0.026-2.472,2.829-3.24,4.518-1.871c12.662,10.261,23.547,22.967,38.106,30.581c0.863-9.731-0.646-19.573-2.896-29.03
			c-4.737-19.902-12.786-38.827-17.842-58.638c-4.41-17.282-6.561-36.016,1.893-52.442c0.737-1.433,3.083-1.801,4.156-0.535
			c12.506,14.757,21.979,34.614,40.453,42.652c2.703-19.612-1.923-39.58-5.625-58.763c-3.969-20.566-7.439-41.428-4.125-62.341
			c0.299-1.891,3.23-2.637,4.424-1.169c11.256,13.843,15.77,31.929,27.079,45.576c-7.422-48.633-8.32-98.112-1.367-146.875
			c12.709-89.142,51.994-175.589,111.787-243.042c11.462-12.931,23.606-25.117,36.212-36.792
			c5.761-5.549,11.605-10.999,17.598-16.229c15.203-13.27,31.133-25.66,47.456-37.524c10.827-8.169,21.774-16.194,32.78-24.133
			c5.553-8.025,11.098-16.058,16.687-24.057c14.829-21.225,28.65-42.971,42.159-65.053c28.661-46.848,57.281-93.976,79.925-144.106
			c23.384-51.768,38.305-105.836,44.492-162.299c3.425-31.248,5.211-62.782,4.232-94.219c-0.495-15.945-1.641-31.912-3.609-47.742
			c-2.016-16.227-3.151-33.077-7.147-48.93c-0.143-0.567,0.958-1.159,1.118-0.529c2.227,8.837,5.318,17.333,7.42,26.212
			c2.059,8.699,3.868,17.358,5.156,26.209c0.948,6.519,1.605,13.066,2.251,19.614c0.636-14.322,0.943-28.665,0.485-42.989
			c-1.166-36.524-8.03-72.929-21.792-106.85c-22.913-56.479-64.566-103.285-116.636-134.592
			C856.272,56.651,799.59,40.903,742.8,37.552c-60.743-3.585-123.692,6.03-178.442,33.338
			c-29.501,14.715-57.581,35.115-77.256,61.881c-9.393,12.777-16.543,26.859-22.157,41.635c-2.764,4.2-5.255,8.586-7.546,13.065
			c-1.46,2.117-2.766,4.327-3.965,6.605c0.788-4.656,1.874-9.329,3.362-13.933c-0.033-6.647,0.582-13.299,1.389-19.903
			c-3.571,3.584-5.563,10.402-6.817,14.195c-2.07,6.265-3.551,12.721-4.762,19.202c-2.522,13.492-3.742,27.255-1.982,40.922
			c0.032,0.256,0.065,0.556,0.096,0.822c0.184,0.148,0.396,0.279,0.583,0.425c-0.229,2.456-0.231,4.928-0.362,7.391
			c-0.101-0.033-0.181-0.066-0.251-0.093c-0.246-0.109-0.492-0.217-0.733-0.336c-2.708-1.327-4.934-3.249-7.283-5.243
			c-7.598-8.017-10.494-22.814-13.022-33.444c-7.216,12.648-7.317,30.867-3.031,43.895c2.299,6.987,5.553,13.895,9.274,20.223
			c0.801,1.364,1.688,2.777,2.639,4.176c1.935,4.18,4.029,8.276,6.48,12.155c-2.06-0.995-3.949-2.313-5.665-3.875
			c7.574,14.554,12.097,30.058,14.436,46.773c3.314,23.703,3.606,47.681,3.86,71.575c0.21,19.735-0.553,39.627,0.309,59.334
			c0.424,9.706,1.734,19.439,5.145,28.583c3.269,8.767,8.781,16.586,14.968,23.542c10.906,12.264,24.597,21.932,39.416,29.875
			c6.725,4.208,13.562,8.235,20.609,11.719c15.057,7.444,31.034,13.494,46.639,19.694c15.242,6.057,30.699,10.381,46.869,13.135
			c2.339,0.398,4.692,0.76,7.053,1.091c12.42,2.065,24.97,3.268,37.633,3.519c0.001-0.052,0-0.102-0.001-0.154
			c8.246,0.642,16.652,0.178,24.964-0.749c23.325-1.843,46.391-6.564,68.549-14.104c3.144-1.07,6.161-2.376,9.25-3.551
			c30.155-10.418,58.786-24.926,85.462-42.417c-7.67,6.307-15.62,12.254-23.814,17.727
			c-46.356,30.954-101.662,48.869-157.505,49.642c-3.868,66.521-57.253,124.182-104.898,167.876
			c-72.245,66.249-150.993,126.476-215.87,200.341c-35.248,40.132-66.149,85.093-86.177,134.836
			c-20.81,51.687-28.728,107.869-26.447,163.384c2.159,52.539,13.008,105.46,33.877,153.824
			c18.684,43.298,45.085,83.104,76.809,117.937c50.065,54.968,112.993,96.984,181.923,124.156c-0.852-0.558-1.74-1.059-2.588-1.623
			C507.369,1639.069,481.192,1618.317,459.007,1594.82z"/>
		<path style="fill:#6B533E;" d="M280.945,1423.036c-19.943-59.38-30.502-122.953-25.305-185.621
			c2.485-29.974,8.612-59.704,19.179-87.896c10.675-28.477,26.033-54.875,43.602-79.62c35.544-50.063,79.533-93.211,119.836-139.306
			c32.172-36.794,62.29-76.258,82.267-120.854c-56.739,49.341-114.477,97.865-164.102,154.365
			c-35.248,40.132-66.149,85.093-86.177,134.836c-20.81,51.687-28.728,107.869-26.447,163.384
			c2.159,52.539,13.008,105.46,33.877,153.824c1.168,2.706,2.456,5.358,3.683,8.037
			C281.226,1423.801,281.075,1423.422,280.945,1423.036z"/>
		<path style="opacity:0.63;fill:#6B533E;" d="M1043.603,327.493c-1.166-36.524-8.03-72.929-21.792-106.85
			c-22.913-56.479-64.566-103.285-116.636-134.592C856.272,56.651,799.59,40.903,742.8,37.552
			c-60.743-3.585-123.692,6.03-178.442,33.338c-29.501,14.715-57.581,35.115-77.256,61.881
			c-9.393,12.777-16.543,26.859-22.157,41.635c-2.764,4.2-5.255,8.586-7.546,13.065c-1.46,2.117-2.766,4.327-3.965,6.605
			c0.788-4.656,1.874-9.329,3.362-13.933c-0.033-6.647,0.582-13.299,1.389-19.903c-3.571,3.584-5.563,10.402-6.817,14.195
			c-2.07,6.265-3.551,12.721-4.762,19.202c-2.522,13.492-3.742,27.255-1.982,40.922c0.032,0.256,0.065,0.556,0.096,0.822
			c0.184,0.148,0.396,0.279,0.583,0.425c-0.229,2.456-0.231,4.928-0.362,7.391c-0.101-0.033-0.181-0.066-0.251-0.093
			c-0.246-0.109-0.492-0.217-0.733-0.336c-2.708-1.327-4.934-3.249-7.283-5.243c-7.598-8.017-10.494-22.814-13.022-33.444
			c-7.216,12.648-7.317,30.867-3.031,43.895c2.299,6.987,5.553,13.895,9.274,20.223c0.801,1.364,1.688,2.777,2.639,4.176
			c1.935,4.18,4.029,8.276,6.48,12.155c-2.06-0.995-3.949-2.313-5.665-3.875c7.574,14.554,12.097,30.058,14.436,46.773
			c3.314,23.703,3.606,47.681,3.86,71.575c0.21,19.735-0.553,39.627,0.309,59.334c0.424,9.706,1.734,19.439,5.145,28.583
			c3.269,8.767,8.781,16.586,14.968,23.542c10.906,12.264,24.597,21.932,39.416,29.875c6.725,4.208,13.562,8.235,20.609,11.719
			c15.057,7.444,31.034,13.494,46.639,19.694c15.242,6.057,30.699,10.381,46.869,13.135c2.339,0.398,4.692,0.76,7.053,1.091
			c12.42,2.065,24.97,3.268,37.633,3.519c0.001-0.052,0-0.102-0.001-0.154c8.246,0.642,16.652,0.178,24.964-0.749
			c23.325-1.843,46.391-6.564,68.549-14.104c3.144-1.07,6.161-2.376,9.25-3.551c30.155-10.418,58.786-24.926,85.462-42.417
			c-7.67,6.307-15.62,12.254-23.814,17.727c-46.356,30.954-101.662,48.869-157.505,49.642
			c-3.868,66.521-57.253,124.182-104.898,167.876c-72.245,66.249-150.993,126.476-215.87,200.341
			c-35.248,40.132-66.149,85.093-86.177,134.836c-1.191,2.961-2.33,5.939-3.438,8.928c0.766-1.263,1.495-2.548,2.278-3.801
			c8.259-13.22,17.616-25.552,27.121-37.882c8.592-11.145,17.462-22.142,27.562-31.972c9.98-9.715,21.377-18.633,34.762-23.023
			c2.397-0.786,3.863,1.958,2.989,3.887c-5.116,11.303-12.73,21.248-19.219,31.763c-5.173,8.381-9.947,17.407-11.49,27.141
			c6.72-7.727,13.481-15.418,20.475-22.897c15.164-16.214,31.443-31.558,49.904-43.988c19.001-12.793,40.216-21.944,62.721-26.348
			c2.495-0.49,4.546,2.457,2.574,4.422c-12.402,12.373-25.592,24.299-35.784,38.558c8.454-5.944,17.038-11.703,25.872-17.065
			c24.951-15.142,51.481-28.338,79.423-36.972c25.338-7.83,53.125-12.219,79.193-5.336c1.357,0.358,2.26,1.898,1.848,3.255
			c-5.827,19.232-25.83,29.245-37.686,44.212c-13.869,17.506-24.081,37.845-32.704,58.35c-8.956,21.294-17.453,42.94-24.034,65.097
			c-6.336,21.329-12.241,43.578-13.577,65.862c-1.069,17.829-0.038,38.009-9.354,53.978c-0.876,1.503-2.925,1.702-4.156,0.535
			c-8.517-8.073-11.008-19.164-12.136-30.674c-0.751,13.427-1.494,26.887-3.792,40.146c-1.909,11.005-5.05,26.226-15.991,31.923
			c-1.035,0.538-2.361,0.461-3.207-0.415c-7.695-7.963-10.005-18.259-11.579-28.789c-1.443,30.145,3.51,60.428,4.417,90.516
			c0.932,30.886-1.529,66.177-22.51,90.818c-21.002,24.667-55.498,16.625-80.544,3.414c-9.889-5.216-18.712-11.894-26.585-19.634
			c1.835,9.236,3.101,18.559,3.156,28.069c0.01,1.818-2.336,3.55-3.983,2.285c-13.956-10.725-24.741-24.798-33.862-39.735
			c-8.406-13.766-15.44-28.307-22.331-42.872c-1.927-4.073-3.873-8.134-5.81-12.199c4.65,16.236,10.233,32.185,16.906,47.65
			c18.684,43.298,45.085,83.104,76.809,117.937c50.065,54.968,112.993,96.984,181.923,124.156c-0.852-0.558-1.74-1.059-2.588-1.623
			c-26.448-17.55-52.625-38.302-74.81-61.799c1.702,1.167,3.402,2.341,5.101,3.502c14.777,10.102,29.087,20.87,43.519,31.453
			c9.251,6.784,18.757,13.488,28.498,19.883c-2.438-3.104-4.867-6.215-7.128-9.439c-9.915-14.145-18.928-30.504-20.198-48.062
			c-0.135-1.883,1.792-2.799,3.35-2.552c10.093,1.599,18.98,6.35,26.6,12.769c-11.339-20.902-22.67-42.696-22.925-66.42
			c-0.026-2.472,2.829-3.24,4.518-1.871c12.662,10.261,23.547,22.967,38.106,30.581c0.863-9.731-0.646-19.573-2.896-29.03
			c-4.737-19.902-12.786-38.827-17.842-58.638c-4.41-17.282-6.561-36.016,1.893-52.442c0.737-1.433,3.083-1.801,4.156-0.535
			c12.506,14.757,21.979,34.614,40.453,42.652c2.703-19.612-1.923-39.58-5.625-58.763c-3.969-20.566-7.439-41.428-4.125-62.341
			c0.299-1.891,3.23-2.637,4.424-1.169c11.256,13.843,15.77,31.929,27.079,45.576c-7.422-48.633-8.32-98.112-1.367-146.875
			c12.709-89.142,51.994-175.589,111.787-243.042c11.462-12.931,23.606-25.117,36.212-36.792
			c5.761-5.549,11.605-10.999,17.598-16.229c15.203-13.27,31.133-25.66,47.456-37.524c10.827-8.169,21.774-16.194,32.78-24.133
			c5.553-8.025,11.098-16.058,16.687-24.057c14.829-21.225,28.65-42.971,42.159-65.053c28.661-46.848,57.281-93.976,79.925-144.106
			c23.384-51.768,38.305-105.836,44.492-162.299c3.425-31.248,5.211-62.782,4.232-94.219c-0.495-15.945-1.641-31.912-3.609-47.742
			c-2.016-16.227-3.151-33.077-7.147-48.93c-0.143-0.567,0.958-1.159,1.118-0.529c2.227,8.837,5.318,17.333,7.42,26.212
			c2.059,8.699,3.868,17.358,5.156,26.209c0.948,6.519,1.605,13.066,2.251,19.614
			C1043.754,356.161,1044.061,341.817,1043.603,327.493z"/>
		<path style="fill:#FFFFFF;" d="M866.623,812.071c-38.05,12.116-77.179,20.621-116.589,26.901
			c-38.607,6.151-77.52,10.187-116.482,13.285c-40.996,3.259-82.158,6.767-123.313,4.63c-13.17-0.684-26.241-2.086-39.202-4.08
			c-31.822,27.926-63.136,56.388-92.294,86.978c5.777,1.286,11.551,2.579,17.331,3.803c10.677,2.262,21.424,4.3,32.281,5.484
			c10.795,1.177,21.577,1.181,32.421,1.081c45.441-0.419,90.894-3.095,135.998-8.714c43.888-5.469,87.467-13.759,130.119-25.497
			c21.047-5.792,41.876-12.387,62.397-19.832c19.788-7.177,40.053-14.622,58.743-24.373c6.927-3.615,13.565-7.674,20.099-11.893
			c14.319-20.582,27.719-41.642,40.81-63.025C895.039,802.455,880.905,807.521,866.623,812.071z"/>
		<path style="fill:#E4E5E6;" d="M866.623,812.071c-38.05,12.116-77.179,20.621-116.589,26.901
			c-38.607,6.151-77.52,10.187-116.482,13.285c-40.996,3.259-82.158,6.767-123.313,4.63c-13.17-0.684-26.241-2.086-39.202-4.08
			c-31.822,27.926-63.136,56.388-92.294,86.978c5.777,1.286,11.551,2.579,17.331,3.803c10.677,2.262,21.424,4.3,32.281,5.484
			c10.795,1.177,21.577,1.181,32.421,1.081c45.441-0.419,90.894-3.095,135.998-8.714c43.888-5.469,87.467-13.759,130.119-25.497
			c21.047-5.792,41.876-12.387,62.397-19.832c19.788-7.177,40.053-14.622,58.743-24.373c6.927-3.615,13.565-7.674,20.099-11.893
			c14.319-20.582,27.719-41.642,40.81-63.025C895.039,802.455,880.905,807.521,866.623,812.071z"/>
		<path style="fill:#0C5032;" d="M429.893,268.198c0.801,1.364,1.688,2.777,2.639,4.176c1.935,4.18,4.029,8.276,6.48,12.155
			c-2.06-0.995-3.949-2.313-5.665-3.875c7.574,14.554,12.097,30.058,14.436,46.773c3.314,23.703,3.606,47.681,3.86,71.575
			c0.21,19.735-0.553,39.627,0.309,59.334c0.424,9.706,1.734,19.439,5.145,28.583c3.269,8.767,8.781,16.586,14.968,23.542
			c10.906,12.264,24.597,21.932,39.416,29.875c6.725,4.208,13.562,8.235,20.609,11.719c15.057,7.444,31.034,13.494,46.639,19.694
			c15.242,6.057,30.699,10.381,46.869,13.135c2.339,0.398,4.692,0.76,7.053,1.091c12.42,2.065,24.97,3.268,37.633,3.519
			c0.001-0.052,0-0.102-0.001-0.154c8.246,0.642,16.652,0.178,24.964-0.749c23.325-1.843,46.391-6.564,68.549-14.104
			c3.144-1.07,6.161-2.376,9.25-3.551c30.155-10.418,58.786-24.926,85.462-42.417c-7.67,6.307-15.62,12.254-23.814,17.727
			c-46.356,30.954-101.662,48.869-157.505,49.642c-3.868,66.521-57.253,124.182-104.898,167.876
			c-37.903,34.757-77.584,67.869-116.125,102.151c28.429,9.351,58.565,13.447,88.341,15.05c34.807,1.874,69.802,0.253,104.411-3.735
			c16.005-1.845,31.938-4.338,47.893-6.565c17.46-2.436,34.89-5.108,52.251-8.184c35.858-6.353,71.525-14.372,106.132-25.801
			c12.749-4.21,25.368-8.909,37.723-14.207c5.524-8.678,10.982-17.403,16.363-26.199c28.661-46.848,57.281-93.976,79.925-144.106
			c23.384-51.768,38.305-105.836,44.492-162.299c3.425-31.248,5.211-62.782,4.232-94.219c-0.495-15.945-1.641-31.912-3.609-47.742
			c-2.016-16.227-3.151-33.077-7.147-48.93c-0.143-0.567,0.958-1.159,1.118-0.529c2.227,8.837,5.318,17.333,7.42,26.212
			c2.059,8.699,3.868,17.358,5.156,26.209c0.948,6.519,1.605,13.066,2.251,19.614c0.636-14.322,0.943-28.665,0.485-42.989
			c-1.166-36.524-8.03-72.929-21.792-106.85c-22.913-56.479-64.566-103.285-116.636-134.592
			C856.272,56.651,799.59,40.903,742.8,37.552c-60.743-3.585-123.692,6.03-178.442,33.338
			c-29.501,14.715-57.581,35.115-77.256,61.881c-9.393,12.777-16.543,26.859-22.157,41.635c-2.764,4.2-5.255,8.586-7.546,13.065
			c-1.46,2.117-2.766,4.327-3.965,6.605c0.788-4.656,1.874-9.329,3.362-13.933c-0.033-6.647,0.582-13.299,1.389-19.903
			c-3.571,3.584-5.563,10.402-6.817,14.195c-2.07,6.265-3.551,12.721-4.762,19.202c-2.522,13.492-3.742,27.255-1.982,40.922
			c0.032,0.256,0.065,0.556,0.096,0.822c0.184,0.148,0.396,0.279,0.583,0.425c-0.229,2.456-0.231,4.928-0.362,7.391
			c-0.101-0.033-0.181-0.066-0.251-0.093c-0.246-0.109-0.492-0.217-0.733-0.336c-2.708-1.327-4.934-3.249-7.283-5.243
			c-7.598-8.017-10.494-22.814-13.022-33.444c-7.216,12.648-7.317,30.867-3.031,43.895
			C422.919,254.962,426.173,261.87,429.893,268.198z"/>
		<path style="fill:#0C5032;" d="M648.083,292.164c-13.505,15.167-24.047,33.503-28.184,53.422
			c4.865-8.49,10.167-16.725,15.984-24.605c22.495-30.472,51.265-55.234,83.074-75.372c-2.073,0.677-4.158,1.32-6.198,2.087
			C688.13,256.951,665.571,272.523,648.083,292.164z"/>
		<path style="fill:#0C5032;" d="M528.396,841.401c8.328-3.236,15.561-9.386,21.718-15.665c3.568-3.638,6.872-7.526,10.016-11.543
			C548.469,821.985,537.384,830.78,528.396,841.401z"/>
		<path style="fill:#0C5032;" d="M490.019,845.759c21.17-17.035,43.854-32.065,65.097-49.009
			c27.007-21.541,53.483-44.064,76.479-69.935c11.212-12.613,21.573-25.669,29.68-40.522c7.839-14.363,14.261-29.664,19.609-45.12
			c3.919-11.325,6.051-23.462,6.145-35.445c0.026-3.316-0.137-6.739-0.532-10.147c-3.101,0.148-6.203,0.263-9.309,0.306
			c-3.868,66.521-57.253,124.182-104.898,167.876c-37.903,34.757-77.584,67.869-116.125,102.151
			c2.762,0.908,5.553,1.726,8.346,2.538C472.555,860.273,481.31,852.765,490.019,845.759z"/>
		<path style="opacity:0.43;fill:#0C5032;" d="M748.036,223.279c-15.333,1.469-30.59,5.264-45.033,10.578
			c-2.405,0.885-3.817-2.019-2.989-3.887c5.025-11.349-3.542-25.508-10.682-33.921c-8.206-9.669-19.928-15.534-31.771-19.583
			c-22.999-7.864-48.522-8.327-71.948-2.029c-19.825,5.329-38.336,15.273-50.068,32.486c-10.514,15.429-19.861,39.937-18.483,61.34
			c0.573,0.579,0.934,1.379,0.742,2.383c-0.152,0.796-0.162,1.593-0.258,2.39c1.843,12.556,7.791,23.671,20.117,30.625
			c2.123,1.2,1.344,3.845-0.348,4.661c5.178,3.238,10.815,5.799,16.372,7.734c12.24,4.262,26.064,6.789,39.016,4.901
			c1.848-0.268,3.941,1.132,3.256,3.256c-5.743,17.791-16.042,36.544-12.681,55.614c10.615-14.392,17.989-30.994,29.045-45.113
			c11.696-14.937,23.628-29.362,37.519-42.35c13.234-12.375,27.595-23.983,43.299-33.08c28.779-16.671,61.195-25.113,93.672-31.149
			C775.378,221.885,760.494,222.087,748.036,223.279z"/>
		<path style="opacity:0.43;fill:#0C5032;" d="M1043.603,327.493c-1.166-36.524-8.03-72.929-21.792-106.85
			c-22.913-56.479-64.566-103.285-116.636-134.592C856.272,56.651,799.59,40.903,742.8,37.552
			c-60.743-3.585-123.692,6.03-178.442,33.338c-29.501,14.715-57.581,35.115-77.256,61.881
			c-9.393,12.777-16.543,26.859-22.157,41.635c-2.764,4.2-5.255,8.586-7.546,13.065c-1.46,2.117-2.766,4.327-3.965,6.605
			c0.788-4.656,1.874-9.329,3.362-13.933c-0.033-6.647,0.582-13.299,1.389-19.903c-3.571,3.584-5.563,10.402-6.817,14.195
			c-2.07,6.265-3.551,12.721-4.762,19.202c-2.522,13.492-3.742,27.255-1.982,40.922c0.032,0.256,0.065,0.556,0.096,0.822
			c0.184,0.148,0.396,0.279,0.583,0.425c-0.229,2.456-0.231,4.928-0.362,7.391c-0.101-0.033-0.181-0.066-0.251-0.093
			c-0.246-0.109-0.492-0.217-0.733-0.336c-2.708-1.327-4.934-3.249-7.283-5.243c-7.598-8.017-10.494-22.814-13.022-33.444
			c-7.216,12.648-7.317,30.867-3.031,43.895c2.299,6.987,5.553,13.895,9.274,20.223c0.801,1.364,1.688,2.777,2.639,4.176
			c1.935,4.18,4.029,8.276,6.48,12.155c-2.06-0.995-3.949-2.313-5.665-3.875c7.574,14.554,12.097,30.058,14.436,46.773
			c3.314,23.703,3.606,47.681,3.86,71.575c0.21,19.735-0.553,39.627,0.309,59.334c0.424,9.706,1.734,19.439,5.145,28.583
			c3.269,8.767,8.781,16.586,14.968,23.542c10.906,12.264,24.597,21.932,39.416,29.875c6.725,4.208,13.562,8.235,20.609,11.719
			c15.057,7.444,31.034,13.494,46.639,19.694c15.242,6.057,30.699,10.381,46.869,13.135c2.339,0.398,4.692,0.76,7.053,1.091
			c12.42,2.065,24.97,3.268,37.633,3.519c0.001-0.052,0-0.102-0.001-0.154c8.246,0.642,16.652,0.178,24.964-0.749
			c23.325-1.843,46.391-6.564,68.549-14.104c3.144-1.07,6.161-2.376,9.25-3.551c30.155-10.418,58.786-24.926,85.462-42.417
			c-7.67,6.307-15.62,12.254-23.814,17.727c-46.356,30.954-101.662,48.869-157.505,49.642c-1.061,18.252-5.944,35.806-13.32,52.618
			c10.73-10.9,20.845-22.333,29.121-35.368c1.144-1.801,4.36-1.713,4.837,0.633c1.765,8.672,0.555,17.542-1.237,26.217
			c8.957-9.536,19.473-17.358,30.995-23.79c13.12-7.325,27.045-13.039,40.732-19.189c16.38-7.358,32.648-14.908,48.732-22.899
			c32.699-16.246,64.889-33.549,98.186-48.566c1.682-0.758,4.114,0.094,3.982,2.285c-0.836,13.925-8.464,26.371-16.444,37.389
			c-6.015,8.308-12.741,16.11-18.966,24.27c15.67-10.941,27.399-27.217,43.137-38.186c1.552-1.081,4.201,0.337,3.981,2.286
			c-2.627,23.407-8.889,46.135-18.102,67.794c-16.838,39.589-42.847,74.831-72.535,105.725
			c-22.281,23.185-46.856,44.137-72.86,63.073c9.055-4.516,18.163-8.909,27.838-11.994c2.313-0.738,3.996,1.945,2.989,3.889
			c-13.398,25.833-38.336,43.037-64.485,54.295c-23.689,10.2-48.973,16.376-74.424,20.218c-35.372,5.341-72.018,6.993-107.561,2.451
			c-14.106-1.801-27.763-5.241-41.68-7.969c-10.127-1.985-20.299-3.722-30.4-5.835c-7.871,6.867-15.74,13.738-23.541,20.677
			c28.429,9.351,58.565,13.447,88.341,15.05c34.807,1.874,69.802,0.253,104.411-3.735c16.005-1.845,31.938-4.338,47.893-6.565
			c17.46-2.436,34.89-5.108,52.251-8.184c35.858-6.353,71.525-14.372,106.132-25.801c12.749-4.21,25.368-8.909,37.723-14.207
			c5.524-8.678,10.982-17.403,16.363-26.199c28.661-46.848,57.281-93.976,79.925-144.106
			c23.384-51.768,38.305-105.836,44.492-162.299c3.425-31.248,5.211-62.782,4.232-94.219c-0.495-15.945-1.641-31.912-3.609-47.742
			c-2.016-16.227-3.151-33.077-7.147-48.93c-0.143-0.567,0.958-1.159,1.118-0.529c2.227,8.837,5.318,17.333,7.42,26.212
			c2.059,8.699,3.868,17.358,5.156,26.209c0.948,6.519,1.605,13.066,2.251,19.614
			C1043.754,356.161,1044.061,341.817,1043.603,327.493z M928.648,397.473c-24.434,41.964-70.382,71.947-118.816,73.503
			c2.274,0.465,4.534,0.969,6.747,1.611c1.526,0.444,2.59,2.453,1.582,3.889c-5.406,7.7-12.833,13.519-21.312,17.524
			c-16.913,7.992-36.336,9.815-54.821,9.751c-11.712-0.041-23.406-0.993-35.031-2.468c10.095,4.57,20.747,8.186,31.602,7.509
			c3.45-0.215,3.318,4.939,0,5.293c-29.421,3.133-59.288,3.219-88.512-1.784c-24.928-4.268-49.328-12.482-71.017-25.623
			c-22.768-13.792-42.334-33.012-56.446-55.595c-26.644-42.638-32.863-96.579-22.57-145.481
			c-5.522,8.521-9.744,17.899-12.983,27.492c-0.937,2.776-5.202,2.367-5.199-0.703c0.039-32.193,3.643-64.798,16.561-94.223
			c-6.727,8.587-12.559,17.873-17.483,27.648c-1.128,2.24-5.265,1.29-4.932-1.336c1.592-12.586,3.794-25.088,6.891-37.395
			c8.396-33.368,23.519-65.001,46.77-89.946c14.711-22.957,42.083-33.798,67.751-39.225c28.384-5.999,57.679-6.616,86.583-6.142
			c28.431,0.464,56.684,3.683,84.491,9.678c31.044,6.694,61.988,16.717,89.539,32.755c25.264,14.71,47.671,35.257,58.74,62.83
			c0.934,2.329-2.06,3.905-3.888,2.989c-12.617-6.315-25.176-12.805-38.3-18.028c-10.211-4.063-21.302-7.945-32.464-8.586
			c25.914,20.555,50.346,43.358,69.79,70.223c18.046,24.93,31.141,53.51,34.733,84.272
			C950.248,338.708,944.287,370.613,928.648,397.473z"/>
		<path style="opacity:0.17;fill:#6B533E;" d="M1683.588,1411.889c7.096-5.924,14.171-11.874,21.424-17.575
			c6.059-4.762,12.263-9.33,18.481-13.876c-34.712,14.673-66.5,37.99-100.502,53.435c-49.127,22.316-99.645,41.598-151.24,57.401
			c-103.469,31.691-210.309,50.695-318.6,52.973c-30.315,0.637-60.813-0.221-90.915-4.08c-23.058-2.955-44.116-11.592-65.326-20.306
			c10.011,13.582,22.58,25.134,38.071,32.436c0.599,0.282,1.051,0.645,1.385,1.056c11.94,6.088,24.341,11.139,36.304,17.174
			c-6.362,3.746-15.147,4.551-21.877,5.292c-11.973,1.319-24.062,1.286-36.091,1.203c-32.391-0.222-64.598,0.645-96.826-3.582
			c-69.438-9.109-136.297-38.436-181.935-93.063c-1.682-2.013-5.909,1.104-4.336,3.225c15.963,21.519,33.522,40.982,55.5,56.388
			c-35.993-14.87-69.467-33.708-97.102-62.813c-29.51-31.079-56.987-75.928-59.918-120.847c0.379-11.817,0.885-23.625,3.123-35.242
			c1.161-6.029-7.541-4.426-8.632,0.088c-1.789,7.412-2.834,14.875-3.253,22.343c-1.56,16.506-1.896,33.153-4.627,49.487
			c-5.267-9.318-6.425-22.986-8.076-32.022c-4.305-23.556-5.138-47.696-2.07-71.462c2.18-16.88,6.779-32.489,12.741-47.5
			c3.758-18.235,11.484-35.234,20.138-51.958c-21.903,31.135-38.584,65.382-43.509,103.827c-3.198,24.968-1.932,50.093,2.497,74.819
			c2.422,13.518,4.29,32.961,17.087,41.01c3.407,2.143,8.563-1.065,9.506-4.589c1.06-3.957,1.824-7.949,2.456-11.957
			c9.612,33.053,29.152,64.027,51.74,88.436c36.171,39.088,86.325,68.292,139.186,76.665c0.016,0.002,0.033-0.005,0.049-0.003
			c15.525,7.468,31.823,13.268,48.63,17.59c53.423,13.737,110.203,14.87,165.107,12.352c16.742-0.768,45.199-1.269,54.462-18.451
			c1.322-2.451,1.017-5.316-1.906-6.298c-13.496-4.528-26.622-10.018-39.323-16.393c1.422,0.325,2.825,0.707,4.262,0.985
			c25.292,4.891,51.381,6.285,77.083,6.708c54.002,0.891,108.239-3.083,161.647-10.98c106.607-15.762,212.435-45.753,311.211-88.912
			c26.742-11.685,52.52-24.507,77.664-39.323C1679.38,1414.314,1681.489,1413.115,1683.588,1411.889z"/>
		<path style="opacity:0.17;fill:#6B533E;" d="M1971.645,878.321c-13.724,2.798-26.896,5.978-40.862,7.521
			c-21.93,2.423-43.405,4.66-64.327,12.014c-0.955,0.336-1.45,2.107-0.064,1.721c28.326-7.9,58.324-3.159,86.976-8.53
			c8.33-1.561,52.929-14.024,54.951-0.689c1.109,7.314-9.483,17.321-13.787,22.035c-7.308,8-15.315,15.355-23.607,22.319
			c-22.206,18.649-47.508,34.127-72.502,48.681c-36.089,21.016-74.008,38.26-113.074,52.947c-4.04,1.519-4.641,8.692,0.841,7.296
			c40.708-10.363,78.849-29.535,114.971-50.638c27.121-15.844,54.569-32.566,78.413-53.15c9.424-8.135,18.672-16.667,26.725-26.183
			c5.692-6.726,12.783-15.242,13.708-24.402C2022.305,866.479,1983.355,875.934,1971.645,878.321z"/>
		<path style="opacity:0.17;fill:#6B533E;" d="M1949.916,1044.078c-2.316-7.057-12.621-5.758-18.204-5.035
			c-11.741,1.52-23.166,5.106-34.518,8.343c-23.283,6.639-47.078,11.713-69.987,19.599c-1.128,0.388-1.773,2.285-0.074,2.025
			c29.514-4.527,58.584-10.278,87.695-16.812c3.707-0.832,20.132-5.965,23.105-2.421c1.412,1.682-21.433,21.153-24.556,23.813
			c-47.531,40.481-102.795,70.948-160.589,94.111c-33.332,13.358-67.47,24.607-101.752,35.258c-3.99,1.239-5.978,8.171-0.258,6.986
			c69.895-14.481,137.838-41.748,198.95-78.586c30.26-18.241,58.764-39.191,84.673-63.24
			C1939.709,1063.191,1952.876,1053.1,1949.916,1044.078z"/>
		<path style="opacity:0.17;fill:#6B533E;" d="M761.871,1357.365c-29.595-20.675-54.107-45.753-67.443-79.915
			c-13.163-33.722-13.931-69.064-4.552-103.826c0.787-2.917-3.152-2.126-4.158-0.489c-20.082,32.659-17.056,75.547-3.741,110.198
			c13.156,34.239,38.839,69.687,76.126,79.162C760.5,1363.106,764.68,1359.327,761.871,1357.365z"/>
		<path style="opacity:0.17;fill:#6B533E;" d="M908.872,1405.06c-16.541-5.284-34.062-6.77-50.61-12.46
			c-17.052-5.863-33.214-14.033-48.428-23.679c-26.783-16.979-54.833-38.812-59.7-72.276c-0.277-1.903-2.984,0.054-3.169,1.128
			c-5.897,34.33,26.92,63.608,52.711,80.505c15.834,10.373,32.782,19.069,50.593,25.512c17.552,6.348,37.36,11.721,56.137,9.191
			C909.754,1412.528,913.432,1406.516,908.872,1405.06z"/>
		<path style="opacity:0.17;fill:#6B533E;" d="M964.929,1354.51c-6.979-0.465-13.762,0.441-20.727,1
			c-7.788,0.627-15.638,0.738-23.425,0.04c-15.15-1.358-31.153-5.46-42.227-16.537c-1.645-1.645-5.459,1.027-3.932,2.925
			c10.222,12.706,25.032,19.946,41.047,22.286c15.98,2.336,33.813,2.744,49.036-3.158
			C967.699,1359.903,969.171,1354.793,964.929,1354.51z"/>
		<path style="opacity:0.17;fill:#6B533E;" d="M1202.666,1400.598c-16.107-0.057-32.486,5.819-48.161,9.061
			c-17.5,3.618-34.986,5.386-52.837,5.819c-24.205,0.587-53.692,2.585-73.045-14.8c-0.806-0.724-2.412,0.771-1.835,1.668
			c14.275,22.191,44.83,22.769,68.457,23.733c17.203,0.702,34.015-0.358,51.015-3.141c18.629-3.049,39.011-6.494,56.141-14.707
			C1205.44,1406.772,1207.936,1400.617,1202.666,1400.598z"/>
		<path style="opacity:0.17;fill:#6B533E;" d="M1249.284,1338.946c-13.558,3.481-26.322,10.127-39.694,14.313
			c-13.712,4.292-27.921,7.548-42.304,8.283c-1.164,0.059-3.135,2.314-1.245,2.791c13.885,3.499,27.855,2.874,41.758-0.45
			c7.121-1.703,14.182-3.791,21.109-6.164c7.21-2.471,14.716-4.79,21.616-8.022c2.659-1.245,5.316-4.212,4.889-7.335
			C1255.006,1339.385,1252.018,1338.244,1249.284,1338.946z"/>
		<g>
			<path d="M686.4,218.28c-0.049-0.168-0.077-0.36-0.127-0.526c-1.619-5.328-4.962-10.661-9.173-14.311
				c-1.138-0.986-2.443-1.789-3.799-2.509c-12.829-10.887-31.94-16.725-47.326-18.689c-20.516-2.62-41.691,0.917-59.561,11.563
				c-16.937,10.089-29.424,25.95-35.71,44.609c-2.269,6.735-3.518,13.707-3.896,20.744c1.284,19.799,10.279,38.854,27.855,49.099
				c2.952,1.721,6.063,3.11,9.237,4.334c19.138,2.221,40.114-3.889,57.387-10.989c19.781-8.13,39.566-20.488,53.167-37.259
				C684.1,252.451,692.162,233.208,686.4,218.28z"/>
			<path style="fill:#433323;" d="M672.639,256.099c-1.465,2.334-3.058,4.606-4.896,6.755
				c-12.397,14.495-29.464,25.195-46.87,32.615c-17.121,7.297-38.429,13.717-57.213,10.676
				c-20.167-3.264-28.267-20.748-31.967-38.903c0.114-9.81,1.743-19.685,5.116-28.889c6.384-17.42,19.014-32.594,35.482-41.263
				c17.616-9.272,38.216-11.161,57.594-7.345c9.119,1.795,17.947,4.862,26.153,9.235c2.52,1.342,4.951,2.815,7.354,4.327
				c10.387,5.19,19.141,14.771,18.95,26.943C682.195,239.609,678.356,248.624,672.639,256.099z"/>
			<path style="fill:#5E4936;" d="M663.392,203.308c-2.402-1.511-4.835-2.984-7.354-4.327c-8.206-4.373-17.034-7.44-26.153-9.235
				c-19.379-3.816-39.977-1.927-57.594,7.346c-16.469,8.667-29.097,23.842-35.483,41.262c-3.372,9.204-5.001,19.079-5.116,28.889
				c3.701,18.154,11.8,35.637,31.968,38.903c18.784,3.041,40.092-3.379,57.212-10.675c17.406-7.419,34.474-18.12,46.87-32.616
				c1.838-2.149,3.431-4.422,4.896-6.755c5.717-7.476,9.556-16.49,9.703-25.847C682.532,218.078,673.779,208.498,663.392,203.308z
				 M629.356,243.546c-3.431,6.849-9.053,12.756-14.656,17.875c-6.922,6.323-14.674,11.908-23.029,16.183
				c-13.796,7.061-33.389,11.962-44.572-2.207c-11.469-14.532-6.339-34.014,3.397-49.068c3.81-8.262,9.799-15.393,17.975-19.839
				c10.685-5.809,23.188-6.2,34.827-3.42c9.224,2.207,18.894,6.516,24.788,14.234C634.098,225.178,633.655,234.963,629.356,243.546z
				"/>
		</g>
		<path style="fill:#FFFFFF;" d="M583.508,223.662c-1.673-3.384-4.79-5.351-8.527-5.619c-3.803-0.273-7.839,1.643-10.785,3.89
			c-3.089,2.353-5.592,5.138-7.842,8.291c-1.621,2.269-3.111,4.862-3.847,7.561c-0.244,0.893-0.432,1.841-0.539,2.798
			c-0.371,1.207-0.647,2.439-0.716,3.699c-0.068,1.255-0.016,2.653,0.453,3.829c0.722,1.819,1.6,2.905,3.069,4.215
			c2.72,2.426,6.504,2.816,9.971,2.299c3.239-0.484,6.518-2.131,9.056-4.167c5.622-4.51,9.713-10.705,10.972-17.857
			C585.316,229.516,584.891,226.46,583.508,223.662z"/>
		<path style="fill:#FFFFFF;" d="M560.007,262.317c-0.021-0.047-0.044-0.094-0.07-0.14c-0.436-0.595-1.01-0.99-1.721-1.186
			c-0.785-0.208-1.574-0.222-2.367-0.044c-0.045,0.013-0.089,0.025-0.133,0.036c-0.019,0.004-0.038,0.009-0.057,0.013
			c-0.005,0.001-0.011,0.003-0.016,0.004c-0.023,0.005-1.337,0.429-1.362,0.441c-0.443,0.249-0.885,0.499-1.327,0.748
			c-0.64,0.415-1.171,0.934-1.594,1.554c-0.324,0.335-0.566,0.722-0.724,1.159c-0.101,0.2-0.198,0.403-0.291,0.607
			c-0.082,0.399-0.165,0.8-0.247,1.199c-0.078,0.6,0.033,1.15,0.332,1.652c0.099,0.38,0.31,0.681,0.633,0.905
			c0.369,0.451,0.849,0.742,1.439,0.875c0.404,0.058,0.809,0.118,1.212,0.177c0.439-0.044,0.879-0.087,1.318-0.131
			c0.732-0.137,1.404-0.409,2.018-0.812c0.692-0.335,1.298-0.79,1.818-1.366l0.009-0.009l0.875-1.125
			c0.381-0.548,0.612-1.145,0.696-1.794c0.139-0.384,0.165-0.774,0.075-1.171C560.538,263.328,560.366,262.798,560.007,262.317z"/>
		<g>
			<g>
				<path style="fill:#C46517;" d="M488.177,432.729c-13.799-40.989-12.374-84.743-23.865-126.005
					c-4.254-19.537-11.125-39.024-30.76-47.577c-26.785-11.667-53.488,2.522-69.744,24.144
					c-8.386,11.154-16.544,24.456-21.29,37.806c-7.736,3.831-15.523,7.528-23.49,10.869c-19.075,7.998-38.617,14.783-58.352,20.96
					c-37.699,11.796-76.124,21.491-114.725,29.848c-18.755,4.061-37.56,6.886-56.542,9.589
					c-13.784,1.962-31.191,4.124-41.856,14.079c-17.395,16.234-2.241,45.051,14.605,55.182c11.531,6.935,25.421,8.807,38.434,11.142
					c19.013,3.413,38.173,5.739,57.322,8.231c39.352,5.121,78.619,10.43,118.107,14.441c20.303,2.063,40.624,3.951,60.949,5.769
					c19.515,1.746,39.52,2.245,58.857,5.454c28.47,4.725,56.332,31.057,85.73,13.463
					C514.452,500.439,497.615,460.765,488.177,432.729z"/>
				<path style="fill:#FFA915;" d="M487.755,504.822c-10.204,16.522-31.712,15.199-47.658,9.233
					c-6.551-2.451-12.427-6.271-18.873-8.951c-7.82-3.252-16.059-5.13-24.426-6.318c-33.914-4.814-68.618-5.968-102.725-9.249
					c-37.701-3.627-75.33-7.848-112.846-13.054c-32.579-4.521-66.382-6.498-98.387-14.335c-13.745-3.365-24.266-9.862-30.753-21.943
					c14.567,15.586,41.473,16.216,61.165,18.419c33.867,3.791,66.777,2.224,100.666,0.201c35.727-2.133,71.468-2.12,107.006,2.468
					c28.189,3.639,56.343,8.069,84.849,7.819c16.691-0.146,41.608-2.326,47.233-21.239c0.094,0.031,0.192,0.045,0.286,0.077
					c-0.049,0.392-0.086,0.785-0.144,1.176c-0.313,2.104-0.374,4.228-0.531,6.346c-0.082,1.101-0.169,2.191-0.19,3.295
					c0,0.023,0.006,0.021,0.007,0.04c-0.029,0.106-0.058,0.211-0.087,0.318c-0.209,0.941-0.182,1.403-0.212,2.257
					c-0.074,2.108,1.417,2.852,3.064,2.919c0.478-0.778,0.965-1.548,1.381-2.362c0.616-1.204,1.369-2.927,1.642-3.681
					c1.905-5.244,2.832-9.893,2.137-15.243c-0.022-0.169-0.018-0.167-0.024-0.233c-0.016-0.06-0.021-0.064-0.061-0.244
					c-0.055-0.25-0.109-0.5-0.17-0.749c-0.152-0.61-0.347-1.2-0.55-1.795c-0.061-0.179-0.138-0.358-0.212-0.536
					c-0.034-0.074-0.069-0.149-0.09-0.187c-0.282-0.531-0.591-1.032-0.927-1.531c-0.094-0.139-0.091-0.148-0.118-0.195
					c-0.042-0.042-0.035-0.027-0.119-0.118c-0.16-0.175-0.324-0.348-0.495-0.514c-0.184-0.18-1.412-1.117-0.858-0.756
					c-0.402-0.263-0.705-0.417-1.018-0.58c-1.41-0.195-2.824-0.394-4.239-0.455c-1.817-0.079-3.672,0.124-5.481,0.333
					c-2.117,0.915-4.081,2.367-6.036,4.228c-2.786,2.652-5.401,5.558-8.276,8.14c0.428-0.166,0.837-0.397,1.222-0.669
					c0.051-0.022,0.102-0.041,0.159-0.062c0.086-0.055,0.033-0.036-0.116,0.033c0.282-0.204,0.594-0.36,0.846-0.602
					c-0.307,0.295-0.368,0.347-0.435,0.406c-0.074,0.043-0.163,0.093-0.272,0.155c0.066-0.024,0.113-0.05,0.182-0.072
					c-0.013,0.01-0.006,0.01,0.004-0.002c0.406-0.13,0.816-0.238,0.961-0.27c0.467-0.104-0.761,0.198-0.649,0.225
					c0.097,0.023,0.411-0.126,0.526-0.153c0.307-0.072,0.614-0.133,0.922-0.2c0.013-0.003,0.004-0.001,0.016-0.004
					c0.669-0.046,1.335-0.098,2.009-0.101c1.64-0.009,3.276-0.138,4.919-0.111c0.658,0.011,1.317,0.04,1.974,0.075
					c-2.705,12.141-18.605,13.311-28.976,13.905c-13.545,0.775-27.294,0.101-40.783-1.062c-37.726-3.252-74.73-8.729-112.721-8.682
					c-37.929,0.047-75.683,5.482-113.605,4.028c-18.689-0.717-37.393-2.441-55.915-5.046c-14.628-2.058-29.479-4.999-41.872-13.485
					c-2.205-5.25-3.841-11.11-2.81-16.808c1.872-10.349,12.482-13.877,21.423-16.319c16.301-4.452,33.446-5.304,50.056-8.181
					c17.961-3.111,35.753-7.155,53.492-11.327c38.372-9.024,76.389-19.474,113.567-32.624c18.366-6.496,36.387-13.806,53.68-22.808
					c1.281-0.667,2.61-1.335,3.961-2.014c1.423-0.063,3.188-0.898,3.878-1.963c0.003-0.004,0.006-0.01,0.008-0.014
					c2.725-1.415,5.389-2.997,7.95-4.696c0.238-0.439,0.545-0.846,0.761-1.294c0.793-1.643,1.532-3.364,2.279-5.092
					c-2.109,1.356-4.352,2.566-6.632,3.675c6.169-10.956,11.327-22.389,19.345-32.36c9.722-12.091,22.529-21.646,38.617-21.848
					c16.577-0.209,30.308,7.654,38.587,21.913c3.638,6.266,6.469,12.88,8.981,19.627c0.001,0.052-0.027,0.102-0.021,0.154
					c3.895,34.634,7.009,69.935,13.959,104.11c3.484,17.13,9.556,33.339,14.965,49.908
					C491.006,473.106,496.763,490.237,487.755,504.822z"/>
				<path style="fill:#FFA915;" d="M48.692,419.639c6.78-9.071,16.624-11.283,27.267-12.929c27.454-4.246,55.347-4.254,82.784-8.709
					c26.37-4.283,52.373-10.671,77.918-18.461c25.85-7.883,51.247-17.205,76.265-27.412c9.984-4.073,20.05-8.077,29.807-12.676
					c8.565-4.04,17.028-8.75,24.044-15.182c-4.045-3.794-5.145-9.427-4.359-15.136c1.609-11.71,8.288-23.683,16.024-32.847
					c-2.635,2.478-5.111,5.165-7.4,8.013c-8.018,9.971-13.176,21.405-19.346,32.361c2.281-1.108,4.523-2.318,6.633-3.675
					c-0.747,1.729-1.486,3.45-2.279,5.092c-0.216,0.448-0.523,0.856-0.762,1.295c-2.56,1.698-5.225,3.281-7.949,4.696
					c-0.003,0.004-0.006,0.009-0.008,0.013c-0.69,1.066-2.454,1.901-3.878,1.965c-1.352,0.678-2.681,1.346-3.961,2.013
					c-17.294,9.002-35.314,16.312-53.68,22.809c-37.178,13.15-75.195,23.599-113.567,32.624
					c-17.739,4.171-35.532,8.215-53.492,11.326c-16.61,2.877-33.755,3.729-50.057,8.181c-8.94,2.443-19.551,5.97-21.422,16.319
					c-0.169,0.932-0.165,1.87-0.2,2.807C47.593,421.259,48.123,420.4,48.692,419.639z"/>
				<path style="fill:#FFA915;" d="M377.499,347.417c-9.086,6.916-18.948,12.411-29.415,16.793
					C360.318,363.907,372.844,358.23,377.499,347.417z"/>
				<path style="fill:#FFA915;" d="M249.85,418.456c-15.051,1.164-29.561,4.701-43.687,9.924
					c-5.832,2.155-11.732,4.488-17.692,6.754c13.352-1.714,26.605-4.139,39.899-6.24c13.918-2.197,27.734-4.084,41.85-3.178
					c22.639,1.452,46.96,7.81,69.7,3.71c-14.279-2.571-28.505-5.437-42.817-7.824C281.388,418.983,265.794,417.222,249.85,418.456z"
					/>
				<path style="opacity:0.65;fill:#FFA915;" d="M486.127,458.165c-5.409-16.57-11.481-32.779-14.965-49.907
					c-6.95-34.177-10.064-69.478-13.959-104.112c-0.006-0.052,0.023-0.101,0.021-0.152c-2.512-6.749-5.343-13.362-8.982-19.628
					c-8.279-14.26-22.009-22.122-38.586-21.913c-9.161,0.114-17.222,3.326-24.292,8.249c5.253-1.578,10.751-2.075,16.357-0.955
					c8.938,1.787,18.15,8.181,21.165,17.043c2.783,8.178-0.383,16.88-2.027,24.941c-0.997,4.894-1.593,9.876-0.148,14.742
					c1.611,5.423,4.955,10.193,8.127,14.805c6.086,8.851,11.463,18.32,15.748,28.184c4.144,9.536,7.26,20.177,4.906,30.598
					c-2.045,9.056-8.242,16.291-16.122,20.924c-15.393,9.051-34.861,9.775-52.247,9.944c-24.095,0.236-47.54-3.93-71.428-6.354
					c-13.064-1.326-26.257-1.845-39.327-0.299c-13.483,1.596-26.89,3.6-40.295,5.751c-25.907,4.156-51.835,8.162-78.146,7.921
					c-12.736-0.118-25.491-0.665-38.097-2.585c-10.111-1.542-19.91-4.287-29.568-7.603c-8.313-2.853-16.648-6.154-24.144-10.792
					c-2.847-1.762-5.664-3.802-8.13-6.165c-2.322,2.19-4.068,4.92-4.718,8.514c-1.031,5.698,0.606,11.559,2.81,16.808
					c12.394,8.486,27.245,11.427,41.873,13.486c18.522,2.605,37.225,4.329,55.915,5.047c37.922,1.454,75.675-3.982,113.605-4.029
					c37.991-0.048,74.995,5.431,112.72,8.683c13.489,1.162,27.239,1.837,40.784,1.062c10.371-0.593,26.272-1.764,28.976-13.904
					c-0.658-0.036-1.316-0.066-1.974-0.076c-1.643-0.028-3.279,0.102-4.919,0.109c-0.673,0.004-1.339,0.056-2.009,0.102
					c-0.011,0.003-0.001,0.001-0.016,0.004c-0.307,0.067-0.615,0.128-0.921,0.2c-0.116,0.027-0.429,0.176-0.526,0.154
					c-0.111-0.027,1.115-0.33,0.649-0.226c-0.145,0.033-0.556,0.141-0.961,0.272c-0.011,0.011-0.017,0.011-0.004,0.001
					c-0.07,0.023-0.116,0.048-0.182,0.072c0.108-0.062,0.198-0.112,0.272-0.155c0.066-0.06,0.128-0.111,0.436-0.406
					c-0.253,0.243-0.564,0.398-0.847,0.602c0.15-0.07,0.203-0.088,0.116-0.033c-0.057,0.021-0.107,0.04-0.159,0.062
					c-0.385,0.272-0.793,0.502-1.222,0.669c2.875-2.582,5.489-5.488,8.276-8.14c1.955-1.861,3.919-3.312,6.036-4.229
					c1.809-0.209,3.662-0.411,5.48-0.332c1.414,0.061,2.828,0.26,4.239,0.455c0.313,0.163,0.616,0.317,1.017,0.579
					c-0.553-0.362,0.676,0.577,0.859,0.756c0.171,0.165,0.333,0.339,0.495,0.514c0.084,0.09,0.077,0.076,0.119,0.118
					c0.026,0.048,0.023,0.057,0.118,0.195c0.336,0.499,0.645,1,0.927,1.531c0.021,0.038,0.056,0.114,0.09,0.187
					c0.074,0.177,0.151,0.357,0.212,0.535c0.202,0.596,0.397,1.186,0.55,1.796c0.063,0.248,0.116,0.497,0.171,0.747
					c0.038,0.181,0.044,0.185,0.06,0.246c0.006,0.066,0.003,0.063,0.025,0.233c0.694,5.35-0.233,10-2.138,15.242
					c-0.274,0.755-1.026,2.478-1.642,3.682c-0.416,0.812-0.904,1.584-1.381,2.362c-1.646-0.068-3.138-0.812-3.064-2.92
					c0.029-0.853,0.003-1.315,0.211-2.256c0.03-0.106,0.058-0.212,0.088-0.319c-0.001-0.021-0.007-0.018-0.006-0.04
					c0.021-1.105,0.108-2.193,0.19-3.296c0.156-2.118,0.219-4.241,0.531-6.345c0.058-0.39,0.094-0.784,0.144-1.176
					c-0.094-0.033-0.192-0.047-0.286-0.078c-5.626,18.915-30.542,21.094-47.233,21.239c-28.505,0.25-56.66-4.179-84.849-7.818
					c-35.539-4.588-71.279-4.602-107.006-2.468c-33.889,2.022-66.799,3.59-100.666-0.2c-19.692-2.204-46.598-2.833-61.165-18.42
					c6.487,12.081,17.008,18.578,30.753,21.944c32.005,7.837,65.807,9.814,98.387,14.334c37.517,5.206,75.146,9.427,112.846,13.054
					c34.108,3.281,68.81,4.435,102.725,9.249c8.367,1.188,16.605,3.066,24.426,6.318c6.446,2.679,12.323,6.499,18.874,8.952
					c15.945,5.965,37.452,7.289,47.657-9.234C496.763,490.237,491.006,473.106,486.127,458.165z"/>
				<path style="opacity:0.65;fill:#FFA915;" d="M377.609,329.887c-10.543,9.031-21.135,18.01-31.291,27.477
					c2.944,1.029,6.151,1.199,9.32,0.77c8.444-1.146,17.106-5.797,22.514-12.417c2.224-2.722,3.699-5.797,3.616-8.967
					c-0.033-1.262-0.546-2.768-1.422-4.097C379.654,331.603,378.663,330.707,377.609,329.887z"/>
			</g>
			<path style="fill:#433323;" d="M386.912,322.878c-1.134-3.982-6.733-1.588-8.189,0.83c-0.595,0.988-1.097,2.033-1.622,3.064
				c-1.722,1.176-3.284,2.581-4.83,3.982c-1.755,1.591-3.484,3.21-5.169,4.876c-3.284,3.245-5.932,7.037-8.651,10.743
				c-0.658,0.898-0.844,2.329-0.182,3.272c0.742,1.059,1.989,1.078,3.137,0.944c3.064-0.359,6.138-1.135,9.112-1.936
				c3.602-0.972,7.679-2.461,10.602-4.839c1-0.813,2.028-1.649,2.904-2.6c1.339-1.454,2.056-2.871,2.866-4.634
				c0.752-1.636,1.131-3.363,1.438-5.135C388.861,328.398,387.727,325.742,386.912,322.878z"/>
		</g>
		<path style="fill:#C8C8B8;" d="M2271.238,932.485c8.629-7.778,17.286-15.53,25.824-23.385
			c33.175-30.517,68.603-58.589,99.678-91.336c13.461-14.186,27.673-28.214,38.697-44.462
			c19.853-22.534,38.746-45.897,56.267-70.239c23.381-32.486,44.36-66.716,63.523-101.845c16.645-30.513,31.25-62.131,41.344-95.335
			c-38.31,45.273-78.645,88.776-122.099,129.195c-10.657,9.91-21.478,19.658-32.334,29.362
			c-11.245,12.248-22.949,24.062-34.941,35.576c-5.214,3.578-10.448,7.127-15.796,10.511c-11.944,7.558-24.063,14.888-36.095,22.308
			c-2.051,1.264-4.134,2.489-6.212,3.719c5.419-5.208,10.738-10.521,15.96-15.937c5.976-5.151,11.896-10.37,17.836-15.572
			c19.128-16.749,37.971-33.868,56.685-51.114c19.953-22.652,38.851-46.227,56.369-70.822c20.778-29.17,40.383-59.559,55.673-91.998
			c7.927-16.818,14.859-34.062,21.683-51.354c-21.575,33.334-45.049,65.407-70.633,95.856
			c-66.244,78.844-144.911,146.538-233.187,199.568c-27.081,26.604-53.607,53.892-76.347,84.304
			c9.855-2.92,19.347-6.938,28.477-11.69c42.523-22.131,76.965-56.431,117.998-80.861c2.781-1.655,4.959,1.951,3.208,4.158
			c-7.399,9.321-15.098,18.396-23.041,27.257c-23.836,26.588-49.679,51.237-75.097,76.29c10.992-5.277,21.795-10.942,32.396-16.971
			c52.202-29.69,99.384-67.067,148.594-101.271c2.599-1.806,5.104,2.043,3.207,4.156c-23.556,26.245-47.724,51.937-72.43,77.103
			c-44.078,44.898-89.835,88.138-136.81,129.99c-25.156,22.413-50.688,44.401-76.49,66.065
			c68.695-25.772,137.811-51.183,201.732-87.632c2.662-1.518,5.243,1.986,3.208,4.157c-17.389,18.544-34.906,36.972-52.735,55.094
			c-31.577,32.093-64.158,63.25-98.58,92.293c-2.392,2.017-4.814,4-7.224,5.996c14.345-7.171,28.721-14.27,43.464-20.536
			c24.073-10.233,49.137-18.559,72.391-30.613c3.685-2.273,7.465-4.388,11.375-6.281c3.038-1.471,5.633,2.807,2.673,4.57
			c-3.121,1.86-6.33,3.551-9.537,5.247c-12.366,7.49-23.432,17.056-33.804,27.089c-12.537,12.126-24.202,25.109-36.026,37.918
			c-11.625,12.593-23.654,24.609-36.182,36.3c-26.442,24.675-53.754,48.413-79.801,73.507c5.886-2.914,11.708-5.958,17.443-9.165
			c35.521-19.866,68.802-44.169,107.371-58.062c2.898-1.044,4.547,3.367,2.039,4.838c-9.332,5.473-18.311,11.519-26.963,18.012
			c-26.333,19.765-49.595,43.275-71.848,67.506c17.573-9.643,35.779-18.132,54.537-25.212
			c42.573-16.069,88.741-25.376,134.354-21.574c6.432,0.536,12.799,1.383,19.102,2.478c-10.681-5.245-21.91-9.139-32.983-11.453
			c-23.476-4.904-47.543-3.792-70.677,1.851c-22.663,3.56-44.336,10.672-63.939,21.595c14.256-10.835,29.799-19.765,47.459-26.21
			c0.675-0.247,1.366-0.436,2.043-0.674c29.715-15.552,60.845-29.234,93.88-35.779c26.958-5.343,55.98-5.636,78.348,9.665
			c-17.952-42.32-64.469-56.954-110.676-54.072c-9.421,7.379-18.896,14.661-28.45,21.747
			c-17.629,13.076-35.669,25.628-54.047,37.667c-3.171,1.292-6.299,2.685-9.498,3.916c-10.796,4.156-21.622,8.24-32.445,12.328
			c6.161-3.748,12.318-7.502,18.41-11.372c11.004-6.994,21.824-14.275,32.562-21.681c0.143-0.074,0.281-0.076,0.423-0.17
			c2.143-1.418,4.162-3.01,6.279-4.464c4.154-2.908,8.284-5.849,12.399-8.811c2.593-1.906,5.252-3.716,7.808-5.672
			c9.648-7.065,19.234-14.219,28.688-21.547c-0.8,0.127-1.569,0.339-2.363,0.483c3.992-3.03,7.968-6.077,11.969-9.093
			c0.543-0.081,1.082-0.181,1.627-0.249c17.709-14.052,35.176-28.402,52.125-43.318c24.684-21.725,48.219-44.833,69.629-69.81
			c9.357-10.917,17.831-22.476,26.84-33.66c6.542-8.122,16.222-17.603,18.454-28.387c-13.04,3.621-24.331,11.899-35.666,19.121
			c-12.868,8.198-26.446,15.262-39.889,22.461c-2.525,1.352-5.071,2.667-7.6,4.011c-26.387,23.048-53.81,44.975-81.543,66.312
			c1.252-1.16,2.535-2.285,3.781-3.452c13.984-13.09,27.759-26.393,41.312-39.928c9.198-9.185,19.58-17.858,26.996-28.643
			c79.203-69.645,150.764-148.553,190.38-247.423c-39.394,29.667-77.627,60.853-116.29,91.443
			C2394.014,835.146,2335.459,887.603,2271.238,932.485z"/>
	</g>
</g>
</svg>
